<svg width="36" height="36" viewBox="0 0 36 36" fill="none" xmlns="http://www.w3.org/2000/svg">
<g id="icon">
<path id="&#209;&#132;&#208;&#190;&#208;&#189;" d="M36 18C36 27.9411 27.9411 36 18 36C8.05887 36 0 27.9411 0 18C0 8.05887 8.05887 0 18 0C27.9411 0 36 8.05887 36 18Z" fill="#8D6EC8"/>
<path id="Icon" d="M9.0933 15.2607H26.9059M12.6558 19.5216H15.6246M10.875 11H25.1247C26.4364 11 27.4997 12.0892 27.4997 13.4339L27.5 22.5663C27.5 23.911 26.4367 25 25.125 25L10.8752 24.9999C9.5636 24.9998 8.50029 23.9098 8.50025 22.5651L8.5 13.4349C8.49996 12.0901 9.5633 11 10.875 11Z" stroke="#E8E2F4" stroke-linecap="round" stroke-linejoin="round"/>
</g>
</svg>
