<svg width="29" height="32" viewBox="0 0 29 32" fill="none" xmlns="http://www.w3.org/2000/svg">
<path d="M28.3286 7.2339C28.6683 6.89024 28.6683 6.33305 28.3286 5.98939L22.792 0.389095C22.4522 0.0454331 21.9013 0.0454315 21.5616 0.389093C21.2218 0.732754 21.2218 1.28994 21.5616 1.6336L26.483 6.61164L21.5615 11.5896C21.2218 11.9333 21.2218 12.4905 21.5615 12.8342C21.9013 13.1779 22.4522 13.1779 22.792 12.8342L28.3286 7.2339ZM7.40386 7.49164C11.2765 7.49163 16.3539 7.49163 20.4631 7.49164C22.5177 7.49164 24.3303 7.49164 25.6292 7.49164C26.2787 7.49164 26.7997 7.49164 27.1584 7.49164C27.3377 7.49164 27.4765 7.49164 27.5704 7.49164C27.6174 7.49164 27.6531 7.49164 27.6771 7.49164C27.6891 7.49164 27.6982 7.49164 27.7043 7.49164C27.7073 7.49164 27.7111 7.49164 27.7111 7.49164H27.7128C27.7128 7.49164 27.7134 7.49164 27.7134 6.61164C27.7134 5.73164 27.7132 5.73164 27.7132 5.73164H27.7111C27.7111 5.73164 27.7073 5.73164 27.7043 5.73164C27.6982 5.73164 27.6891 5.73164 27.6771 5.73164C27.6531 5.73164 27.6174 5.73164 27.5704 5.73164C27.4765 5.73164 27.3378 5.73164 27.1584 5.73164C26.7997 5.73164 26.2787 5.73164 25.6292 5.73164C24.3303 5.73164 22.5177 5.73164 20.4631 5.73164C16.3539 5.73163 11.2765 5.73163 7.40386 5.73164V7.49164ZM7.40386 18.1959C6.20505 18.1959 5.28202 18.0243 4.5722 17.7612L3.97359 19.4139C4.91156 19.7615 6.04355 19.9559 7.40386 19.9559V18.1959ZM5.059 7.73057C5.6955 7.5818 6.46805 7.49164 7.40386 7.49164V5.73164C6.35945 5.73164 5.45306 5.83208 4.66725 6.01576L5.059 7.73057ZM7.40386 19.9559C7.4189 19.9559 7.43394 19.9559 7.44899 19.9559C7.46403 19.9559 7.47907 19.9559 7.49412 19.9559C7.50916 19.9559 7.5242 19.9559 7.53924 19.9559C7.5543 19.9559 7.56934 19.9559 7.58438 19.9559C7.59942 19.9559 7.61448 19.9559 7.62952 19.9559C7.64456 19.9559 7.65961 19.9559 7.67466 19.9559C7.6897 19.9559 7.70475 19.9559 7.71979 19.9559C7.73484 19.9559 7.74989 19.9559 7.76493 19.9559C7.77998 19.9559 7.79502 19.9559 7.81008 19.9559C7.82512 19.9559 7.84016 19.9559 7.85521 19.9559C7.87026 19.9559 7.8853 19.9559 7.90035 19.9559C7.91542 19.9559 7.93045 19.9559 7.94548 19.9559C7.96051 19.9559 7.97561 19.9559 7.99064 19.9559C8.00567 19.9559 8.02069 19.9559 8.03572 19.9559C8.05083 19.9559 8.06586 19.9559 8.08088 19.9559C8.09591 19.9559 8.11094 19.9559 8.12604 19.9559C8.14107 19.9559 8.1561 19.9559 8.17113 19.9559C8.18615 19.9559 8.20126 19.9559 8.21629 19.9559C8.23131 19.9559 8.24634 19.9559 8.26137 19.9559C8.2764 19.9559 8.2915 19.9559 8.30653 19.9559C8.32156 19.9559 8.33658 19.9559 8.35161 19.9559C8.36664 19.9559 8.38167 19.9559 8.39669 19.9559C8.41172 19.9559 8.42683 19.9559 8.44185 19.9559C8.45688 19.9559 8.47191 19.9559 8.48694 19.9559C8.50196 19.9559 8.51699 19.9559 8.53202 19.9559C8.54705 19.9559 8.56207 19.9559 8.5771 19.9559C8.59213 19.9559 8.60715 19.9559 8.62218 19.9559C8.63721 19.9559 8.65223 19.9559 8.66726 19.9559C8.68229 19.9559 8.69732 19.9559 8.71234 19.9559C8.72737 19.9559 8.74232 19.9559 8.75735 19.9559C8.77237 19.9559 8.7874 19.9559 8.80243 19.9559C8.81746 19.9559 8.83248 19.9559 8.84743 19.9559C8.86246 19.9559 8.87749 19.9559 8.89251 19.9559C8.90754 19.9559 8.92249 19.9559 8.93752 19.9559C8.95254 19.9559 8.96757 19.9559 8.98252 19.9559C8.99755 19.9559 9.01257 19.9559 9.02752 19.9559C9.04255 19.9559 9.05758 19.9559 9.07253 19.9559C9.08755 19.9559 9.1025 19.9559 9.11753 19.9559C9.13255 19.9559 9.1475 19.9559 9.16253 19.9559C9.17748 19.9559 9.19251 19.9559 9.20745 19.9559C9.22248 19.9559 9.23743 19.9559 9.25246 19.9559C9.2674 19.9559 9.28235 19.9559 9.29738 19.9559C9.31233 19.9559 9.32736 19.9559 9.3423 19.9559C9.35725 19.9559 9.37228 19.9559 9.38723 19.9559C9.40218 19.9559 9.41712 19.9559 9.43215 19.9559C9.4471 19.9559 9.46205 19.9559 9.477 19.9559C9.49194 19.9559 9.50689 19.9559 9.52192 19.9559C9.53687 19.9559 9.55182 19.9559 9.56676 19.9559C9.58171 19.9559 9.59666 19.9559 9.61161 19.9559C9.62656 19.9559 9.6415 19.9559 9.65645 19.9559C9.6714 19.9559 9.68635 19.9559 9.70122 19.9559C9.71617 19.9559 9.73111 19.9559 9.74606 19.9559C9.76101 19.9559 9.77596 19.9559 9.79083 19.9559C9.80578 19.9559 9.82072 19.9559 9.83559 19.9559C9.85054 19.9559 9.86549 19.9559 9.88036 19.9559C9.89531 19.9559 9.91018 19.9559 9.92513 19.9559C9.94007 19.9559 9.95494 19.9559 9.96981 19.9559C9.98476 19.9559 9.99963 19.9559 10.0146 19.9559C10.0294 19.9559 10.0443 19.9559 10.0593 19.9559C10.0741 19.9559 10.089 19.9559 10.1039 19.9559C10.1188 19.9559 10.1337 19.9559 10.1486 19.9559C10.1634 19.9559 10.1783 19.9559 10.1932 19.9559C10.2081 19.9559 10.223 19.9559 10.2379 19.9559C10.2527 19.9559 10.2675 19.9559 10.2824 19.9559C10.2972 19.9559 10.3121 19.9559 10.327 19.9559C10.3419 19.9559 10.3567 19.9559 10.3715 19.9559C10.3864 19.9559 10.4013 19.9559 10.416 19.9559C10.4309 19.9559 10.4458 19.9559 10.4606 19.9559C10.4754 19.9559 10.4902 19.9559 10.5051 19.9559C10.5199 19.9559 10.5348 19.9559 10.5495 19.9559C10.5643 19.9559 10.5792 19.9559 10.594 19.9559C10.6088 19.9559 10.6237 19.9559 10.6384 19.9559C10.6532 19.9559 10.668 19.9559 10.6828 19.9559C10.6976 19.9559 10.7124 19.9559 10.7272 19.9559C10.742 19.9559 10.7568 19.9559 10.7716 19.9559C10.7863 19.9559 10.8011 19.9559 10.8159 19.9559C10.8306 19.9559 10.8454 19.9559 10.8602 19.9559C10.875 19.9559 10.8897 19.9559 10.9045 19.9559C10.9192 19.9559 10.934 19.9559 10.9487 19.9559C10.9635 19.9559 10.9782 19.9559 10.993 19.9559C11.0077 19.9559 11.0224 19.9559 11.0372 19.9559C11.0519 19.9559 11.0666 19.9559 11.0814 19.9559C11.0961 19.9559 11.1109 19.9559 11.1256 19.9559C11.1403 19.9559 11.155 19.9559 11.1697 19.9559C11.1844 19.9559 11.199 19.9559 11.2138 19.9559C11.2285 19.9559 11.2432 19.9559 11.2579 19.9559C11.2725 19.9559 11.2872 19.9559 11.3019 19.9559C11.3166 19.9559 11.3313 19.9559 11.3459 19.9559C11.3606 19.9559 11.3753 19.9559 11.3899 19.9559C11.4046 19.9559 11.4192 19.9559 11.4339 19.9559C11.4485 19.9559 11.4632 19.9559 11.4778 19.9559C11.4925 19.9559 11.5071 19.9559 11.5217 19.9559C11.5364 19.9559 11.551 19.9559 11.5656 19.9559C11.5802 19.9559 11.5948 19.9559 11.6094 19.9559C11.6241 19.9559 11.6386 19.9559 11.6533 19.9559C11.6678 19.9559 11.6824 19.9559 11.697 19.9559C11.7116 19.9559 11.7262 19.9559 11.7408 19.9559C11.7554 19.9559 11.7699 19.9559 11.7845 19.9559C11.7991 19.9559 11.8137 19.9559 11.8282 19.9559C11.8428 19.9559 11.8573 19.9559 11.8719 19.9559C11.8864 19.9559 11.901 19.9559 11.9154 19.9559C11.93 19.9559 11.9446 19.9559 11.9591 19.9559C11.9736 19.9559 11.9881 19.9559 12.0026 19.9559C12.0172 19.9559 12.0316 19.9559 12.0462 19.9559C12.0607 19.9559 12.0751 19.9559 12.0896 19.9559C12.1042 19.9559 12.1186 19.9559 12.1331 19.9559C12.1476 19.9559 12.1621 19.9559 12.1765 19.9559C12.191 19.9559 12.2055 19.9559 12.2199 19.9559C12.2343 19.9559 12.2488 19.9559 12.2633 19.9559C12.2777 19.9559 12.2922 19.9559 12.3066 19.9559C12.321 19.9559 12.3354 19.9559 12.3498 19.9559C12.3643 19.9559 12.3787 19.9559 12.3931 19.9559C12.4075 19.9559 12.4219 19.9559 12.4363 19.9559C12.4507 19.9559 12.4651 19.9559 12.4794 19.9559C12.4938 19.9559 12.5082 19.9559 12.5225 19.9559C12.5369 19.9559 12.5513 19.9559 12.5657 19.9559C12.58 19.9559 12.5944 19.9559 12.6088 19.9559C12.6231 19.9559 12.6374 19.9559 12.6518 19.9559C12.6661 19.9559 12.6804 19.9559 12.6947 19.9559C12.709 19.9559 12.7234 19.9559 12.7377 19.9559C12.752 19.9559 12.7662 19.9559 12.7805 19.9559C12.7949 19.9559 12.8091 19.9559 12.8234 19.9559C12.8377 19.9559 12.852 19.9559 12.8662 19.9559C12.8805 19.9559 12.8948 19.9559 12.909 19.9559C12.9232 19.9559 12.9375 19.9559 12.9517 19.9559C12.9659 19.9559 12.9802 19.9559 12.9944 19.9559C13.0086 19.9559 13.0229 19.9559 13.037 19.9559C13.0513 19.9559 13.0655 19.9559 13.0797 19.9559C13.0939 19.9559 13.1081 19.9559 13.1222 19.9559C13.1365 19.9559 13.1506 19.9559 13.1648 19.9559C13.1789 19.9559 13.1931 19.9559 13.2072 19.9559C13.2214 19.9559 13.2356 19.9559 13.2497 19.9559C13.2638 19.9559 13.2779 19.9559 13.2921 19.9559C13.3062 19.9559 13.3203 19.9559 13.3344 19.9559C13.3485 19.9559 13.3627 19.9559 13.3767 19.9559C13.3908 19.9559 13.4049 19.9559 13.419 19.9559C13.433 19.9559 13.4471 19.9559 13.4612 19.9559C13.4753 19.9559 13.4893 19.9559 13.5034 19.9559C13.5174 19.9559 13.5314 19.9559 13.5455 19.9559C13.5595 19.9559 13.5735 19.9559 13.5876 19.9559C13.6016 19.9559 13.6156 19.9559 13.6296 19.9559C13.6436 19.9559 13.6576 19.9559 13.6716 19.9559C13.6856 19.9559 13.6995 19.9559 13.7135 19.9559C13.7275 19.9559 13.7414 19.9559 13.7553 19.9559C13.7693 19.9559 13.7833 19.9559 13.7972 19.9559C13.8112 19.9559 13.8251 19.9559 13.839 19.9559C13.8529 19.9559 13.8669 19.9559 13.8807 19.9559C13.8946 19.9559 13.9085 19.9559 13.9225 19.9559C13.9363 19.9559 13.9502 19.9559 13.9641 19.9559C13.9779 19.9559 13.9918 19.9559 14.0057 19.9559C14.0195 19.9559 14.0333 19.9559 14.0472 19.9559C14.061 19.9559 14.0749 19.9559 14.0887 19.9559C14.1025 19.9559 14.1163 19.9559 14.1301 19.9559C14.1439 19.9559 14.1577 19.9559 14.1715 19.9559C14.1853 19.9559 14.199 19.9559 14.2128 19.9559C14.2266 19.9559 14.2403 19.9559 14.2541 19.9559C14.2678 19.9559 14.2816 19.9559 14.2954 19.9559C14.3091 19.9559 14.3228 19.9559 14.3365 19.9559C14.3503 19.9559 14.3639 19.9559 14.3776 19.9559C14.3913 19.9559 14.405 19.9559 14.4187 19.9559C14.4324 19.9559 14.446 19.9559 14.4597 19.9559C14.4734 19.9559 14.487 19.9559 14.5007 19.9559C14.5143 19.9559 14.528 19.9559 14.5416 19.9559C14.5552 19.9559 14.5688 19.9559 14.5824 19.9559C14.5961 19.9559 14.6096 19.9559 14.6232 19.9559C14.6368 19.9559 14.6504 19.9559 14.6639 19.9559C14.6775 19.9559 14.6911 19.9559 14.7047 19.9559C14.7182 19.9559 14.7317 19.9559 14.7452 19.9559C14.7588 19.9559 14.7723 19.9559 14.7858 19.9559C14.7993 19.9559 14.8129 19.9559 14.8264 19.9559C14.8398 19.9559 14.8534 19.9559 14.8668 19.9559C14.8802 19.9559 14.8938 19.9559 14.9072 19.9559C14.9207 19.9559 14.9341 19.9559 14.9476 19.9559C14.961 19.9559 14.9744 19.9559 14.9878 19.9559C15.0013 19.9559 15.0146 19.9559 15.0281 19.9559C15.0414 19.9559 15.0548 19.9559 15.0682 19.9559C15.0816 19.9559 15.095 19.9559 15.1083 19.9559C15.1216 19.9559 15.135 19.9559 15.1484 19.9559C15.1617 19.9559 15.175 19.9559 15.1883 19.9559C15.2017 19.9559 15.215 19.9559 15.2282 19.9559C15.2415 19.9559 15.2548 19.9559 15.2681 19.9559C15.2814 19.9559 15.2947 19.9559 15.3079 19.9559C15.3212 19.9559 15.3344 19.9559 15.3477 19.9559C15.3609 19.9559 15.3741 19.9559 15.3873 19.9559C15.4005 19.9559 15.4137 19.9559 15.4269 19.9559C15.4401 19.9559 15.4533 19.9559 15.4665 19.9559C15.4797 19.9559 15.4928 19.9559 15.5059 19.9559C15.5191 19.9559 15.5323 19.9559 15.5454 19.9559C15.5585 19.9559 15.5717 19.9559 15.5847 19.9559C15.5978 19.9559 15.611 19.9559 15.624 19.9559C15.6371 19.9559 15.6502 19.9559 15.6632 19.9559C15.6763 19.9559 15.6894 19.9559 15.7024 19.9559C15.7154 19.9559 15.7285 19.9559 15.7415 19.9559C15.7545 19.9559 15.7676 19.9559 15.7805 19.9559C15.7936 19.9559 15.8066 19.9559 15.8195 19.9559C15.8325 19.9559 15.8455 19.9559 15.8584 19.9559C15.8714 19.9559 15.8843 19.9559 15.8973 19.9559C15.9102 19.9559 15.9231 19.9559 15.936 19.9559C15.9489 19.9559 15.9618 19.9559 15.9747 19.9559C15.9876 19.9559 16.0005 19.9559 16.0134 19.9559C16.0262 19.9559 16.0391 19.9559 16.0519 19.9559C16.0648 19.9559 16.0776 19.9559 16.0904 19.9559C16.1032 19.9559 16.116 19.9559 16.1289 19.9559C16.1417 19.9559 16.1544 19.9559 16.1672 19.9559C16.1799 19.9559 16.1928 19.9559 16.2055 19.9559C16.2182 19.9559 16.231 19.9559 16.2437 19.9559C16.2564 19.9559 16.2692 19.9559 16.2818 19.9559C16.2946 19.9559 16.3072 19.9559 16.3199 19.9559C16.3326 19.9559 16.3452 19.9559 16.3579 19.9559C16.3706 19.9559 16.3832 19.9559 16.3959 19.9559C16.4085 19.9559 16.4211 19.9559 16.4338 19.9559C16.4463 19.9559 16.4589 19.9559 16.4715 19.9559C16.4841 19.9559 16.4966 19.9559 16.5092 19.9559C16.5218 19.9559 16.5344 19.9559 16.5469 19.9559C16.5594 19.9559 16.5719 19.9559 16.5844 19.9559C16.5969 19.9559 16.6094 19.9559 16.6219 19.9559C16.6344 19.9559 16.6469 19.9559 16.6594 19.9559C16.6718 19.9559 16.6842 19.9559 16.6967 19.9559C16.7091 19.9559 16.7216 19.9559 16.734 19.9559C16.7464 19.9559 16.7588 19.9559 16.7712 19.9559C16.7836 19.9559 16.7959 19.9559 16.8083 19.9559C16.8207 19.9559 16.833 19.9559 16.8453 19.9559C16.8577 19.9559 16.87 19.9559 16.8824 19.9559C16.8946 19.9559 16.907 19.9559 16.9192 19.9559C16.9315 19.9559 16.9438 19.9559 16.9561 19.9559C16.9683 19.9559 16.9806 19.9559 16.9928 19.9559C17.005 19.9559 17.0172 19.9559 17.0295 19.9559C17.0416 19.9559 17.0538 19.9559 17.066 19.9559C17.0782 19.9559 17.0904 19.9559 17.1025 19.9559C17.1147 19.9559 17.1268 19.9559 17.139 19.9559C17.1511 19.9559 17.1632 19.9559 17.1753 19.9559C17.1874 19.9559 17.1995 19.9559 17.2116 19.9559C17.2236 19.9559 17.2357 19.9559 17.2478 19.9559C17.2599 19.9559 17.2719 19.9559 17.2839 19.9559C17.2959 19.9559 17.3079 19.9559 17.32 19.9559C17.3319 19.9559 17.3439 19.9559 17.3559 19.9559C17.3678 19.9559 17.3798 19.9559 17.3918 19.9559C17.4037 19.9559 17.4156 19.9559 17.4275 19.9559C17.4395 19.9559 17.4513 19.9559 17.4633 19.9559C17.4751 19.9559 17.487 19.9559 17.4989 19.9559C17.5107 19.9559 17.5226 19.9559 17.5344 19.9559C17.5462 19.9559 17.558 19.9559 17.5699 19.9559C17.5817 19.9559 17.5935 19.9559 17.6052 19.9559C17.617 19.9559 17.6288 19.9559 17.6405 19.9559C17.6523 19.9559 17.664 19.9559 17.6757 19.9559C17.6875 19.9559 17.6992 19.9559 17.7109 19.9559C17.7225 19.9559 17.7342 19.9559 17.7459 19.9559C17.7576 19.9559 17.7692 19.9559 17.7809 19.9559C17.7925 19.9559 17.8042 19.9559 17.8157 19.9559C17.8273 19.9559 17.839 19.9559 17.8505 19.9559C17.8621 19.9559 17.8737 19.9559 17.8852 19.9559C17.8968 19.9559 17.9083 19.9559 17.9199 19.9559C17.9313 19.9559 17.9429 19.9559 17.9544 19.9559C17.9658 19.9559 17.9774 19.9559 17.9888 19.9559C18.0002 19.9559 18.0117 19.9559 18.0232 19.9559C18.0346 19.9559 18.046 19.9559 18.0574 19.9559C18.0688 19.9559 18.0802 19.9559 18.0916 19.9559C18.103 19.9559 18.1144 19.9559 18.1257 19.9559C18.1371 19.9559 18.1484 19.9559 18.1597 19.9559C18.171 19.9559 18.1823 19.9559 18.1936 19.9559C18.2048 19.9559 18.2161 19.9559 18.2274 19.9559C18.2387 19.9559 18.2499 19.9559 18.2611 19.9559C18.2724 19.9559 18.2835 19.9559 18.2948 19.9559C18.306 19.9559 18.3171 19.9559 18.3283 19.9559C18.3394 19.9559 18.3506 19.9559 18.3618 19.9559C18.3729 19.9559 18.3841 19.9559 18.3951 19.9559C18.4063 19.9559 18.4174 19.9559 18.4284 19.9559C18.4395 19.9559 18.4506 19.9559 18.4616 19.9559C18.4726 19.9559 18.4836 19.9559 18.4947 19.9559C18.5057 19.9559 18.5167 19.9559 18.5277 19.9559C18.5387 19.9559 18.5496 19.9559 18.5606 19.9559C18.5715 19.9559 18.5825 19.9559 18.5934 19.9559C18.6043 19.9559 18.6152 19.9559 18.6261 19.9559C18.637 19.9559 18.6479 19.9559 18.6587 19.9559C18.6696 19.9559 18.6804 19.9559 18.6912 19.9559C18.7021 19.9559 18.7129 19.9559 18.7237 19.9559C18.7345 19.9559 18.7453 19.9559 18.756 19.9559C18.7668 19.9559 18.7775 19.9559 18.7883 19.9559C18.799 19.9559 18.8097 19.9559 18.8204 19.9559C18.8311 19.9559 18.8418 19.9559 18.8524 19.9559C18.8631 19.9559 18.8738 19.9559 18.8844 19.9559C18.8951 19.9559 18.9057 19.9559 18.9163 19.9559C18.9269 19.9559 18.9375 19.9559 18.9481 19.9559C18.9586 19.9559 18.9692 19.9559 18.9797 19.9559C18.9902 19.9559 19.0007 19.9559 19.0112 19.9559C19.0218 19.9559 19.0323 19.9559 19.0427 19.9559C19.0532 19.9559 19.0637 19.9559 19.0741 19.9559C19.0846 19.9559 19.0949 19.9559 19.1054 19.9559C19.1157 19.9559 19.1262 19.9559 19.1365 19.9559C19.1469 19.9559 19.1572 19.9559 19.1676 19.9559C19.1779 19.9559 19.1883 19.9559 19.1985 19.9559C19.2089 19.9559 19.2192 19.9559 19.2294 19.9559C19.2397 19.9559 19.2499 19.9559 19.2601 19.9559C19.2704 19.9559 19.2806 19.9559 19.2908 19.9559C19.301 19.9559 19.3112 19.9559 19.3214 19.9559C19.3316 19.9559 19.3418 19.9559 19.3519 19.9559C19.362 19.9559 19.3721 19.9559 19.3823 19.9559C19.3923 19.9559 19.4024 19.9559 19.4125 19.9559C19.4225 19.9559 19.4326 19.9559 19.4426 19.9559C19.4527 19.9559 19.4627 19.9559 19.4727 19.9559C19.4827 19.9559 19.4927 19.9559 19.5026 19.9559C19.5126 19.9559 19.5226 19.9559 19.5325 19.9559C19.5424 19.9559 19.5523 19.9559 19.5622 19.9559C19.5721 19.9559 19.582 19.9559 19.5919 19.9559C19.6017 19.9559 19.6115 19.9559 19.6214 19.9559C19.6312 19.9559 19.641 19.9559 19.6508 19.9559C19.6606 19.9559 19.6703 19.9559 19.6801 19.9559C19.6898 19.9559 19.6996 19.9559 19.7093 19.9559C19.719 19.9559 19.7288 19.9559 19.7384 19.9559C19.7481 19.9559 19.7578 19.9559 19.7674 19.9559C19.7771 19.9559 19.7867 19.9559 19.7963 19.9559C19.8059 19.9559 19.8155 19.9559 19.8251 19.9559C19.8347 19.9559 19.8442 19.9559 19.8537 19.9559C19.8633 19.9559 19.8728 19.9559 19.8823 19.9559C19.8918 19.9559 19.9013 19.9559 19.9107 19.9559C19.9202 19.9559 19.9296 19.9559 19.9391 19.9559C19.9486 19.9559 19.958 19.9559 19.9673 19.9559C19.9767 19.9559 19.9861 19.9559 19.9955 19.9559C20.0048 19.9559 20.0141 19.9559 20.0235 19.9559C20.0328 19.9559 20.0421 19.9559 20.0514 19.9559C20.0607 19.9559 20.07 19.9559 20.0792 19.9559C20.0884 19.9559 20.0976 19.9559 20.1069 19.9559C20.1161 19.9559 20.1252 19.9559 20.1344 19.9559C20.1436 19.9559 20.1528 19.9559 20.1619 19.9559C20.171 19.9559 20.1801 19.9559 20.1892 19.9559C20.1983 19.9559 20.2074 19.9559 20.2164 19.9559C20.2255 19.9559 20.2345 19.9559 20.2436 19.9559C20.2526 19.9559 20.2616 19.9559 20.2706 19.9559C20.2795 19.9559 20.2886 19.9559 20.2975 19.9559C20.3064 19.9559 20.3154 19.9559 20.3243 19.9559C20.3332 19.9559 20.3421 19.9559 20.351 19.9559C20.3598 19.9559 20.3687 19.9559 20.3775 19.9559C20.3863 19.9559 20.3951 19.9559 20.404 19.9559C20.4127 19.9559 20.4215 19.9559 20.4302 19.9559C20.439 19.9559 20.4477 19.9559 20.4565 19.9559C20.4652 19.9559 20.4739 19.9559 20.4826 19.9559C20.4912 19.9559 20.4999 19.9559 20.5085 19.9559C20.5171 19.9559 20.5258 19.9559 20.5344 19.9559C20.543 19.9559 20.5515 19.9559 20.5601 19.9559C20.5686 19.9559 20.5772 19.9559 20.5857 19.9559C20.5943 19.9559 20.6027 19.9559 20.6113 19.9559C20.6197 19.9559 20.6282 19.9559 20.6366 19.9559C20.645 19.9559 20.6535 19.9559 20.6619 19.9559C20.6703 19.9559 20.6786 19.9559 20.687 19.9559C20.6954 19.9559 20.7037 19.9559 20.712 19.9559C20.7204 19.9559 20.7286 19.9559 20.7369 19.9559C20.7452 19.9559 20.7535 19.9559 20.7618 19.9559C20.77 19.9559 20.7782 19.9559 20.7864 19.9559C20.7946 19.9559 20.8028 19.9559 20.811 19.9559C20.8191 19.9559 20.8273 19.9559 20.8354 19.9559C20.8435 19.9559 20.8516 19.9559 20.8597 19.9559C20.8677 19.9559 20.8758 19.9559 20.8839 19.9559C20.8919 19.9559 20.8999 19.9559 20.9079 19.9559C20.9159 19.9559 20.9239 19.9559 20.9318 19.9559C20.9398 19.9559 20.9477 19.9559 20.9556 19.9559C20.9636 19.9559 20.9714 19.9559 20.9793 19.9559C20.9872 19.9559 20.9951 19.9559 21.0029 19.9559C21.0107 19.9559 21.0186 19.9559 21.0263 19.9559C21.0342 19.9559 21.0419 19.9559 21.0497 19.9559C21.0574 19.9559 21.0652 19.9559 21.0728 19.9559C21.0806 19.9559 21.0883 19.9559 21.0959 19.9559C21.1036 19.9559 21.1113 19.9559 21.1189 19.9559C21.1265 19.9559 21.1341 19.9559 21.1416 19.9559C21.1492 19.9559 21.1568 19.9559 21.1643 19.9559C21.1719 19.9559 21.1794 19.9559 21.187 19.9559C21.1944 19.9559 21.2019 19.9559 21.2093 19.9559C21.2169 19.9559 21.2243 19.9559 21.2316 19.9559C21.2391 19.9559 21.2465 19.9559 21.2539 19.9559C21.2612 19.9559 21.2686 19.9559 21.2759 19.9559C21.2832 19.9559 21.2906 19.9559 21.2978 19.9559C21.3051 19.9559 21.3124 19.9559 21.3196 19.9559C21.3269 19.9559 21.3341 19.9559 21.3413 19.9559C21.3485 19.9559 21.3557 19.9559 21.3629 19.9559C21.37 19.9559 21.3771 19.9559 21.3842 19.9559C21.3913 19.9559 21.3984 19.9559 21.4055 19.9559C21.4126 19.9559 21.4196 19.9559 21.4267 19.9559C21.4337 19.9559 21.4407 19.9559 21.4476 19.9559C21.4547 19.9559 21.4616 19.9559 21.4685 19.9559C21.4755 19.9559 21.4824 19.9559 21.4893 19.9559C21.4962 19.9559 21.5031 19.9559 21.51 19.9559C21.5168 19.9559 21.5236 19.9559 21.5304 19.9559C21.5373 19.9559 21.544 19.9559 21.5508 19.9559C21.5576 19.9559 21.5643 19.9559 21.571 19.9559C21.5777 19.9559 21.5844 19.9559 21.5911 19.9559C21.5978 19.9559 21.6044 19.9559 21.611 19.9559C21.6177 19.9559 21.6243 19.9559 21.6309 19.9559C21.6375 19.9559 21.644 19.9559 21.6506 19.9559C21.6571 19.9559 21.6636 19.9559 21.6701 19.9559C21.6766 19.9559 21.6831 19.9559 21.6895 19.9559C21.696 19.9559 21.7024 19.9559 21.7088 19.9559C21.7152 19.9559 21.7216 19.9559 21.7279 19.9559C21.7343 19.9559 21.7407 19.9559 21.747 19.9559C21.7532 19.9559 21.7596 19.9559 21.7658 19.9559C21.7722 19.9559 21.7783 19.9559 21.7846 19.9559C21.7908 19.9559 21.797 19.9559 21.8032 19.9559C21.8093 19.9559 21.8155 19.9559 21.8217 19.9559C21.8278 19.9559 21.8339 19.9559 21.8399 19.9559C21.846 19.9559 21.8521 19.9559 21.8581 19.9559C21.8642 19.9559 21.8702 19.9559 21.8762 19.9559C21.8822 19.9559 21.8882 19.9559 21.8941 19.9559C21.9 19.9559 21.906 19.9559 21.9119 19.9559C21.9178 19.9559 21.9237 19.9559 21.9295 19.9559C21.9354 19.9559 21.9412 19.9559 21.947 19.9559C21.9528 19.9559 21.9586 19.9559 21.9643 19.9559C21.9701 19.9559 21.9758 19.9559 21.9816 19.9559C21.9873 19.9559 21.993 19.9559 21.9986 19.9559C22.0043 19.9559 22.0099 19.9559 22.0155 19.9559C22.0212 19.9559 22.0267 19.9559 22.0324 19.9559C22.0379 19.9559 22.0434 19.9559 22.049 19.9559C22.0545 19.9559 22.06 19.9559 22.0655 19.9559C22.071 19.9559 22.0764 19.9559 22.0819 19.9559C22.0872 19.9559 22.0926 19.9559 22.0981 19.9559C22.1035 19.9559 22.1088 19.9559 22.1141 19.9559C22.1194 19.9559 22.1247 19.9559 22.13 19.9559C22.1353 19.9559 22.1406 19.9559 22.1459 19.9559C22.1511 19.9559 22.1563 19.9559 22.1614 19.9559C22.1667 19.9559 22.1718 19.9559 22.1769 19.9559C22.1821 19.9559 22.1872 19.9559 22.1923 19.9559C22.1974 19.9559 22.2025 19.9559 22.2075 19.9559C22.2125 19.9559 22.2176 19.9559 22.2226 19.9559C22.2276 19.9559 22.2325 19.9559 22.2374 19.9559C22.2424 19.9559 22.2473 19.9559 22.2522 19.9559C22.2571 19.9559 22.262 19.9559 22.2669 19.9559C22.2717 19.9559 22.2765 19.9559 22.2813 19.9559C22.2861 19.9559 22.2908 19.9559 22.2957 19.9559C22.3004 19.9559 22.3051 19.9559 22.3098 19.9559C22.3145 19.9559 22.3191 19.9559 22.3238 19.9559C22.3285 19.9559 22.3331 19.9559 22.3377 19.9559C22.3423 19.9559 22.3468 19.9559 22.3514 19.9559C22.3559 19.9559 22.3605 19.9559 22.3649 19.9559C22.3694 19.9559 22.374 19.9559 22.3784 19.9559C22.3828 19.9559 22.3872 19.9559 22.3917 19.9559C22.3961 19.9559 22.4005 19.9559 22.4048 19.9559C22.4092 19.9559 22.4135 19.9559 22.4178 19.9559C22.422 19.9559 22.4263 19.9559 22.4306 19.9559C22.4349 19.9559 22.439 19.9559 22.4432 19.9559C22.4474 19.9559 22.4516 19.9559 22.4557 19.9559C22.4599 19.9559 22.464 19.9559 22.4682 19.9559C22.4723 19.9559 22.4763 19.9559 22.4803 19.9559C22.4844 19.9559 22.4884 19.9559 22.4924 19.9559C22.4964 19.9559 22.5003 19.9559 22.5043 19.9559C22.5083 19.9559 22.5121 19.9559 22.5161 19.9559C22.52 19.9559 22.5238 19.9559 22.5276 19.9559C22.5315 19.9559 22.5353 19.9559 22.5391 19.9559C22.5429 19.9559 22.5466 19.9559 22.5504 19.9559C22.5541 19.9559 22.5578 19.9559 22.5615 19.9559C22.5652 19.9559 22.5688 19.9559 22.5725 19.9559C22.5761 19.9559 22.5798 19.9559 22.5833 19.9559C22.5869 19.9559 22.5904 19.9559 22.594 19.9559C22.5975 19.9559 22.601 19.9559 22.6044 19.9559C22.6079 19.9559 22.6114 19.9559 22.6148 19.9559C22.6183 19.9559 22.6217 19.9559 22.625 19.9559C22.6284 19.9559 22.6317 19.9559 22.635 19.9559C22.6384 19.9559 22.6417 19.9559 22.6449 19.9559C22.6482 19.9559 22.6514 19.9559 22.6546 19.9559C22.6578 19.9559 22.6611 19.9559 22.6642 19.9559C22.6673 19.9559 22.6705 19.9559 22.6736 19.9559C22.6767 19.9559 22.6798 19.9559 22.6828 19.9559C22.6859 19.9559 22.6889 19.9559 22.6919 19.9559C22.6949 19.9559 22.6978 19.9559 22.7008 19.9559C22.7038 19.9559 22.7067 19.9559 22.7095 19.9559C22.7125 19.9559 22.7153 19.9559 22.7182 19.9559C22.721 19.9559 22.7239 19.9559 22.7266 19.9559C22.7294 19.9559 22.7322 19.9559 22.7348 19.9559C22.7376 19.9559 22.7403 19.9559 22.743 19.9559C22.7457 19.9559 22.7483 19.9559 22.7509 19.9559C22.7536 19.9559 22.7561 19.9559 22.7587 19.9559C22.7613 19.9559 22.7638 19.9559 22.7663 19.9559C22.7689 19.9559 22.7713 19.9559 22.7738 19.9559C22.7763 19.9559 22.7787 19.9559 22.7811 19.9559C22.7835 19.9559 22.7859 19.9559 22.7882 19.9559C22.7906 19.9559 22.7929 19.9559 22.7952 19.9559C22.7975 19.9559 22.7998 19.9559 22.802 19.9559C22.8042 19.9559 22.8064 19.9559 22.8086 19.9559C22.8108 19.9559 22.813 19.9559 22.8151 19.9559C22.8173 19.9559 22.8193 19.9559 22.8214 19.9559C22.8235 19.9559 22.8255 19.9559 22.8275 19.9559H22.8335H22.8393H22.8449H22.8504H22.8557H22.8608H22.8658H22.8706H22.8752H22.8797H22.8839H22.888H22.892H22.8958H22.8994H22.9028H22.9061H22.9092H22.9121H22.9148H22.9174H22.9198H22.922H22.924H22.9259H22.9275H22.929H22.9304H22.9315H22.9339C22.9339 19.9559 22.9348 19.9559 22.9348 19.0759C22.9348 18.1959 22.9346 18.1959 22.9346 18.1959H22.9333H22.9315H22.9304H22.929H22.9275H22.9259H22.924H22.922H22.9198H22.9174H22.9148H22.9121H22.9092H22.9061H22.9028H22.8994H22.8958H22.892H22.888H22.8839H22.8797H22.8752H22.8706H22.8658H22.8608H22.8557H22.8504H22.8449H22.8393H22.8335H22.8275C22.8255 18.1959 22.8235 18.1959 22.8214 18.1959C22.8193 18.1959 22.8173 18.1959 22.8151 18.1959C22.813 18.1959 22.8108 18.1959 22.8086 18.1959C22.8064 18.1959 22.8042 18.1959 22.802 18.1959C22.7998 18.1959 22.7975 18.1959 22.7952 18.1959C22.7929 18.1959 22.7906 18.1959 22.7882 18.1959C22.7859 18.1959 22.7835 18.1959 22.7811 18.1959C22.7787 18.1959 22.7763 18.1959 22.7738 18.1959C22.7713 18.1959 22.7689 18.1959 22.7663 18.1959C22.7638 18.1959 22.7613 18.1959 22.7587 18.1959C22.7561 18.1959 22.7536 18.1959 22.7509 18.1959C22.7483 18.1959 22.7457 18.1959 22.743 18.1959C22.7403 18.1959 22.7376 18.1959 22.7348 18.1959C22.7322 18.1959 22.7294 18.1959 22.7266 18.1959C22.7239 18.1959 22.721 18.1959 22.7182 18.1959C22.7153 18.1959 22.7125 18.1959 22.7095 18.1959C22.7067 18.1959 22.7038 18.1959 22.7008 18.1959C22.6978 18.1959 22.6949 18.1959 22.6919 18.1959C22.6889 18.1959 22.6859 18.1959 22.6828 18.1959C22.6798 18.1959 22.6767 18.1959 22.6736 18.1959C22.6705 18.1959 22.6673 18.1959 22.6642 18.1959C22.6611 18.1959 22.6578 18.1959 22.6546 18.1959C22.6514 18.1959 22.6482 18.1959 22.6449 18.1959C22.6417 18.1959 22.6384 18.1959 22.635 18.1959C22.6317 18.1959 22.6284 18.1959 22.625 18.1959C22.6217 18.1959 22.6183 18.1959 22.6148 18.1959C22.6114 18.1959 22.6079 18.1959 22.6044 18.1959C22.601 18.1959 22.5975 18.1959 22.594 18.1959C22.5904 18.1959 22.5869 18.1959 22.5833 18.1959C22.5798 18.1959 22.5761 18.1959 22.5725 18.1959C22.5688 18.1959 22.5652 18.1959 22.5615 18.1959C22.5578 18.1959 22.5541 18.1959 22.5504 18.1959C22.5466 18.1959 22.5429 18.1959 22.5391 18.1959C22.5353 18.1959 22.5315 18.1959 22.5276 18.1959C22.5238 18.1959 22.52 18.1959 22.5161 18.1959C22.5121 18.1959 22.5083 18.1959 22.5043 18.1959C22.5003 18.1959 22.4964 18.1959 22.4924 18.1959C22.4884 18.1959 22.4844 18.1959 22.4803 18.1959C22.4763 18.1959 22.4723 18.1959 22.4682 18.1959C22.464 18.1959 22.4599 18.1959 22.4557 18.1959C22.4516 18.1959 22.4474 18.1959 22.4432 18.1959C22.439 18.1959 22.4349 18.1959 22.4306 18.1959C22.4263 18.1959 22.422 18.1959 22.4178 18.1959C22.4135 18.1959 22.4092 18.1959 22.4048 18.1959C22.4005 18.1959 22.3961 18.1959 22.3917 18.1959C22.3872 18.1959 22.3828 18.1959 22.3784 18.1959C22.374 18.1959 22.3694 18.1959 22.3649 18.1959C22.3605 18.1959 22.3559 18.1959 22.3514 18.1959C22.3468 18.1959 22.3423 18.1959 22.3377 18.1959C22.3331 18.1959 22.3285 18.1959 22.3238 18.1959C22.3191 18.1959 22.3145 18.1959 22.3098 18.1959C22.3051 18.1959 22.3004 18.1959 22.2957 18.1959C22.2908 18.1959 22.2861 18.1959 22.2813 18.1959C22.2765 18.1959 22.2717 18.1959 22.2669 18.1959C22.262 18.1959 22.2571 18.1959 22.2522 18.1959C22.2473 18.1959 22.2424 18.1959 22.2374 18.1959C22.2325 18.1959 22.2276 18.1959 22.2226 18.1959C22.2176 18.1959 22.2125 18.1959 22.2075 18.1959C22.2025 18.1959 22.1974 18.1959 22.1923 18.1959C22.1872 18.1959 22.1821 18.1959 22.1769 18.1959C22.1718 18.1959 22.1667 18.1959 22.1614 18.1959C22.1563 18.1959 22.1511 18.1959 22.1459 18.1959C22.1406 18.1959 22.1353 18.1959 22.13 18.1959C22.1247 18.1959 22.1194 18.1959 22.1141 18.1959C22.1088 18.1959 22.1035 18.1959 22.0981 18.1959C22.0926 18.1959 22.0872 18.1959 22.0819 18.1959C22.0764 18.1959 22.071 18.1959 22.0655 18.1959C22.06 18.1959 22.0545 18.1959 22.049 18.1959C22.0434 18.1959 22.0379 18.1959 22.0324 18.1959C22.0267 18.1959 22.0212 18.1959 22.0155 18.1959C22.0099 18.1959 22.0043 18.1959 21.9986 18.1959C21.993 18.1959 21.9873 18.1959 21.9816 18.1959C21.9758 18.1959 21.9701 18.1959 21.9643 18.1959C21.9586 18.1959 21.9528 18.1959 21.947 18.1959C21.9412 18.1959 21.9354 18.1959 21.9295 18.1959C21.9237 18.1959 21.9178 18.1959 21.9119 18.1959C21.906 18.1959 21.9 18.1959 21.8941 18.1959C21.8882 18.1959 21.8822 18.1959 21.8762 18.1959C21.8702 18.1959 21.8642 18.1959 21.8581 18.1959C21.8521 18.1959 21.846 18.1959 21.8399 18.1959C21.8339 18.1959 21.8278 18.1959 21.8217 18.1959C21.8155 18.1959 21.8093 18.1959 21.8032 18.1959C21.797 18.1959 21.7908 18.1959 21.7846 18.1959C21.7783 18.1959 21.7722 18.1959 21.7658 18.1959C21.7596 18.1959 21.7532 18.1959 21.747 18.1959C21.7407 18.1959 21.7343 18.1959 21.7279 18.1959C21.7216 18.1959 21.7152 18.1959 21.7088 18.1959C21.7024 18.1959 21.696 18.1959 21.6895 18.1959C21.6831 18.1959 21.6766 18.1959 21.6701 18.1959C21.6636 18.1959 21.6571 18.1959 21.6506 18.1959C21.644 18.1959 21.6375 18.1959 21.6309 18.1959C21.6243 18.1959 21.6177 18.1959 21.611 18.1959C21.6044 18.1959 21.5978 18.1959 21.5911 18.1959C21.5844 18.1959 21.5777 18.1959 21.571 18.1959C21.5643 18.1959 21.5576 18.1959 21.5508 18.1959C21.544 18.1959 21.5373 18.1959 21.5304 18.1959C21.5236 18.1959 21.5168 18.1959 21.51 18.1959C21.5031 18.1959 21.4962 18.1959 21.4893 18.1959C21.4824 18.1959 21.4755 18.1959 21.4685 18.1959C21.4616 18.1959 21.4547 18.1959 21.4476 18.1959C21.4407 18.1959 21.4337 18.1959 21.4267 18.1959C21.4196 18.1959 21.4126 18.1959 21.4055 18.1959C21.3984 18.1959 21.3913 18.1959 21.3842 18.1959C21.3771 18.1959 21.37 18.1959 21.3629 18.1959C21.3557 18.1959 21.3485 18.1959 21.3413 18.1959C21.3341 18.1959 21.3269 18.1959 21.3196 18.1959C21.3124 18.1959 21.3051 18.1959 21.2978 18.1959C21.2906 18.1959 21.2832 18.1959 21.2759 18.1959C21.2686 18.1959 21.2612 18.1959 21.2539 18.1959C21.2465 18.1959 21.2391 18.1959 21.2316 18.1959C21.2243 18.1959 21.2169 18.1959 21.2093 18.1959C21.2019 18.1959 21.1944 18.1959 21.187 18.1959C21.1794 18.1959 21.1719 18.1959 21.1643 18.1959C21.1568 18.1959 21.1492 18.1959 21.1416 18.1959C21.1341 18.1959 21.1265 18.1959 21.1189 18.1959C21.1113 18.1959 21.1036 18.1959 21.0959 18.1959C21.0883 18.1959 21.0806 18.1959 21.0728 18.1959C21.0652 18.1959 21.0574 18.1959 21.0497 18.1959C21.0419 18.1959 21.0342 18.1959 21.0263 18.1959C21.0186 18.1959 21.0107 18.1959 21.0029 18.1959C20.9951 18.1959 20.9872 18.1959 20.9793 18.1959C20.9714 18.1959 20.9636 18.1959 20.9556 18.1959C20.9477 18.1959 20.9398 18.1959 20.9318 18.1959C20.9239 18.1959 20.9159 18.1959 20.9079 18.1959C20.8999 18.1959 20.8919 18.1959 20.8839 18.1959C20.8758 18.1959 20.8677 18.1959 20.8597 18.1959C20.8516 18.1959 20.8435 18.1959 20.8354 18.1959C20.8273 18.1959 20.8191 18.1959 20.811 18.1959C20.8028 18.1959 20.7946 18.1959 20.7864 18.1959C20.7782 18.1959 20.77 18.1959 20.7618 18.1959C20.7535 18.1959 20.7452 18.1959 20.7369 18.1959C20.7286 18.1959 20.7204 18.1959 20.712 18.1959C20.7037 18.1959 20.6954 18.1959 20.687 18.1959C20.6786 18.1959 20.6703 18.1959 20.6619 18.1959C20.6535 18.1959 20.645 18.1959 20.6366 18.1959C20.6282 18.1959 20.6197 18.1959 20.6113 18.1959C20.6027 18.1959 20.5943 18.1959 20.5857 18.1959C20.5772 18.1959 20.5686 18.1959 20.5601 18.1959C20.5515 18.1959 20.543 18.1959 20.5344 18.1959C20.5258 18.1959 20.5171 18.1959 20.5085 18.1959C20.4999 18.1959 20.4912 18.1959 20.4826 18.1959C20.4739 18.1959 20.4652 18.1959 20.4565 18.1959C20.4477 18.1959 20.439 18.1959 20.4302 18.1959C20.4215 18.1959 20.4127 18.1959 20.404 18.1959C20.3951 18.1959 20.3863 18.1959 20.3775 18.1959C20.3687 18.1959 20.3598 18.1959 20.351 18.1959C20.3421 18.1959 20.3332 18.1959 20.3243 18.1959C20.3154 18.1959 20.3064 18.1959 20.2975 18.1959C20.2886 18.1959 20.2795 18.1959 20.2706 18.1959C20.2616 18.1959 20.2526 18.1959 20.2436 18.1959C20.2345 18.1959 20.2255 18.1959 20.2164 18.1959C20.2074 18.1959 20.1983 18.1959 20.1892 18.1959C20.1801 18.1959 20.171 18.1959 20.1619 18.1959C20.1528 18.1959 20.1436 18.1959 20.1344 18.1959C20.1252 18.1959 20.1161 18.1959 20.1069 18.1959C20.0976 18.1959 20.0884 18.1959 20.0792 18.1959C20.07 18.1959 20.0607 18.1959 20.0514 18.1959C20.0421 18.1959 20.0328 18.1959 20.0235 18.1959C20.0141 18.1959 20.0048 18.1959 19.9955 18.1959C19.9861 18.1959 19.9767 18.1959 19.9673 18.1959C19.958 18.1959 19.9486 18.1959 19.9391 18.1959C19.9296 18.1959 19.9202 18.1959 19.9107 18.1959C19.9013 18.1959 19.8918 18.1959 19.8823 18.1959C19.8728 18.1959 19.8633 18.1959 19.8537 18.1959C19.8442 18.1959 19.8347 18.1959 19.8251 18.1959C19.8155 18.1959 19.8059 18.1959 19.7963 18.1959C19.7867 18.1959 19.7771 18.1959 19.7674 18.1959C19.7578 18.1959 19.7481 18.1959 19.7384 18.1959C19.7288 18.1959 19.719 18.1959 19.7093 18.1959C19.6996 18.1959 19.6898 18.1959 19.6801 18.1959C19.6703 18.1959 19.6606 18.1959 19.6508 18.1959C19.641 18.1959 19.6312 18.1959 19.6214 18.1959C19.6115 18.1959 19.6017 18.1959 19.5919 18.1959C19.582 18.1959 19.5721 18.1959 19.5622 18.1959C19.5523 18.1959 19.5424 18.1959 19.5325 18.1959C19.5226 18.1959 19.5126 18.1959 19.5026 18.1959C19.4927 18.1959 19.4827 18.1959 19.4727 18.1959C19.4627 18.1959 19.4527 18.1959 19.4426 18.1959C19.4326 18.1959 19.4225 18.1959 19.4125 18.1959C19.4024 18.1959 19.3923 18.1959 19.3823 18.1959C19.3721 18.1959 19.362 18.1959 19.3519 18.1959C19.3418 18.1959 19.3316 18.1959 19.3214 18.1959C19.3112 18.1959 19.301 18.1959 19.2908 18.1959C19.2806 18.1959 19.2704 18.1959 19.2601 18.1959C19.2499 18.1959 19.2397 18.1959 19.2294 18.1959C19.2192 18.1959 19.2089 18.1959 19.1985 18.1959C19.1883 18.1959 19.1779 18.1959 19.1676 18.1959C19.1572 18.1959 19.1469 18.1959 19.1365 18.1959C19.1262 18.1959 19.1157 18.1959 19.1054 18.1959C19.0949 18.1959 19.0846 18.1959 19.0741 18.1959C19.0637 18.1959 19.0532 18.1959 19.0427 18.1959C19.0323 18.1959 19.0218 18.1959 19.0112 18.1959C19.0007 18.1959 18.9902 18.1959 18.9797 18.1959C18.9692 18.1959 18.9586 18.1959 18.9481 18.1959C18.9375 18.1959 18.9269 18.1959 18.9163 18.1959C18.9057 18.1959 18.8951 18.1959 18.8844 18.1959C18.8738 18.1959 18.8631 18.1959 18.8524 18.1959C18.8418 18.1959 18.8311 18.1959 18.8204 18.1959C18.8097 18.1959 18.799 18.1959 18.7883 18.1959C18.7775 18.1959 18.7668 18.1959 18.756 18.1959C18.7453 18.1959 18.7345 18.1959 18.7237 18.1959C18.7129 18.1959 18.7021 18.1959 18.6912 18.1959C18.6804 18.1959 18.6696 18.1959 18.6587 18.1959C18.6479 18.1959 18.637 18.1959 18.6261 18.1959C18.6152 18.1959 18.6043 18.1959 18.5934 18.1959C18.5825 18.1959 18.5715 18.1959 18.5606 18.1959C18.5496 18.1959 18.5387 18.1959 18.5277 18.1959C18.5167 18.1959 18.5057 18.1959 18.4947 18.1959C18.4836 18.1959 18.4726 18.1959 18.4616 18.1959C18.4506 18.1959 18.4395 18.1959 18.4284 18.1959C18.4174 18.1959 18.4063 18.1959 18.3951 18.1959C18.3841 18.1959 18.3729 18.1959 18.3618 18.1959C18.3506 18.1959 18.3394 18.1959 18.3283 18.1959C18.3171 18.1959 18.306 18.1959 18.2948 18.1959C18.2835 18.1959 18.2724 18.1959 18.2611 18.1959C18.2499 18.1959 18.2387 18.1959 18.2274 18.1959C18.2161 18.1959 18.2048 18.1959 18.1936 18.1959C18.1823 18.1959 18.171 18.1959 18.1597 18.1959C18.1484 18.1959 18.1371 18.1959 18.1257 18.1959C18.1144 18.1959 18.103 18.1959 18.0916 18.1959C18.0802 18.1959 18.0688 18.1959 18.0574 18.1959C18.046 18.1959 18.0346 18.1959 18.0232 18.1959C18.0117 18.1959 18.0002 18.1959 17.9888 18.1959C17.9774 18.1959 17.9658 18.1959 17.9544 18.1959C17.9429 18.1959 17.9313 18.1959 17.9199 18.1959C17.9083 18.1959 17.8968 18.1959 17.8852 18.1959C17.8737 18.1959 17.8621 18.1959 17.8505 18.1959C17.839 18.1959 17.8273 18.1959 17.8157 18.1959C17.8042 18.1959 17.7925 18.1959 17.7809 18.1959C17.7692 18.1959 17.7576 18.1959 17.7459 18.1959C17.7342 18.1959 17.7225 18.1959 17.7109 18.1959C17.6992 18.1959 17.6875 18.1959 17.6757 18.1959C17.664 18.1959 17.6523 18.1959 17.6405 18.1959C17.6288 18.1959 17.617 18.1959 17.6052 18.1959C17.5935 18.1959 17.5817 18.1959 17.5699 18.1959C17.558 18.1959 17.5462 18.1959 17.5344 18.1959C17.5226 18.1959 17.5107 18.1959 17.4989 18.1959C17.487 18.1959 17.4751 18.1959 17.4633 18.1959C17.4513 18.1959 17.4395 18.1959 17.4275 18.1959C17.4156 18.1959 17.4037 18.1959 17.3918 18.1959C17.3798 18.1959 17.3678 18.1959 17.3559 18.1959C17.3439 18.1959 17.3319 18.1959 17.32 18.1959C17.3079 18.1959 17.2959 18.1959 17.2839 18.1959C17.2719 18.1959 17.2599 18.1959 17.2478 18.1959C17.2357 18.1959 17.2236 18.1959 17.2116 18.1959C17.1995 18.1959 17.1874 18.1959 17.1753 18.1959C17.1632 18.1959 17.1511 18.1959 17.139 18.1959C17.1268 18.1959 17.1147 18.1959 17.1025 18.1959C17.0904 18.1959 17.0782 18.1959 17.066 18.1959C17.0538 18.1959 17.0416 18.1959 17.0295 18.1959C17.0172 18.1959 17.005 18.1959 16.9928 18.1959C16.9806 18.1959 16.9683 18.1959 16.9561 18.1959C16.9438 18.1959 16.9315 18.1959 16.9192 18.1959C16.907 18.1959 16.8946 18.1959 16.8824 18.1959C16.87 18.1959 16.8577 18.1959 16.8453 18.1959C16.833 18.1959 16.8207 18.1959 16.8083 18.1959C16.7959 18.1959 16.7836 18.1959 16.7712 18.1959C16.7588 18.1959 16.7464 18.1959 16.734 18.1959C16.7216 18.1959 16.7091 18.1959 16.6967 18.1959C16.6842 18.1959 16.6718 18.1959 16.6594 18.1959C16.6469 18.1959 16.6344 18.1959 16.6219 18.1959C16.6094 18.1959 16.5969 18.1959 16.5844 18.1959C16.5719 18.1959 16.5594 18.1959 16.5469 18.1959C16.5344 18.1959 16.5218 18.1959 16.5092 18.1959C16.4966 18.1959 16.4841 18.1959 16.4715 18.1959C16.4589 18.1959 16.4463 18.1959 16.4338 18.1959C16.4211 18.1959 16.4085 18.1959 16.3959 18.1959C16.3832 18.1959 16.3706 18.1959 16.3579 18.1959C16.3452 18.1959 16.3326 18.1959 16.3199 18.1959C16.3072 18.1959 16.2946 18.1959 16.2818 18.1959C16.2692 18.1959 16.2564 18.1959 16.2437 18.1959C16.231 18.1959 16.2182 18.1959 16.2055 18.1959C16.1928 18.1959 16.1799 18.1959 16.1672 18.1959C16.1544 18.1959 16.1417 18.1959 16.1289 18.1959C16.116 18.1959 16.1032 18.1959 16.0904 18.1959C16.0776 18.1959 16.0648 18.1959 16.0519 18.1959C16.0391 18.1959 16.0262 18.1959 16.0134 18.1959C16.0005 18.1959 15.9876 18.1959 15.9747 18.1959C15.9618 18.1959 15.9489 18.1959 15.936 18.1959C15.9231 18.1959 15.9102 18.1959 15.8973 18.1959C15.8843 18.1959 15.8714 18.1959 15.8584 18.1959C15.8455 18.1959 15.8325 18.1959 15.8195 18.1959C15.8066 18.1959 15.7936 18.1959 15.7805 18.1959C15.7676 18.1959 15.7545 18.1959 15.7415 18.1959C15.7285 18.1959 15.7154 18.1959 15.7024 18.1959C15.6894 18.1959 15.6763 18.1959 15.6632 18.1959C15.6502 18.1959 15.6371 18.1959 15.624 18.1959C15.611 18.1959 15.5978 18.1959 15.5847 18.1959C15.5717 18.1959 15.5585 18.1959 15.5454 18.1959C15.5323 18.1959 15.5191 18.1959 15.5059 18.1959C15.4928 18.1959 15.4797 18.1959 15.4665 18.1959C15.4533 18.1959 15.4401 18.1959 15.4269 18.1959C15.4137 18.1959 15.4005 18.1959 15.3873 18.1959C15.3741 18.1959 15.3609 18.1959 15.3477 18.1959C15.3344 18.1959 15.3212 18.1959 15.3079 18.1959C15.2947 18.1959 15.2814 18.1959 15.2681 18.1959C15.2548 18.1959 15.2415 18.1959 15.2282 18.1959C15.215 18.1959 15.2017 18.1959 15.1883 18.1959C15.175 18.1959 15.1617 18.1959 15.1484 18.1959C15.135 18.1959 15.1216 18.1959 15.1083 18.1959C15.095 18.1959 15.0816 18.1959 15.0682 18.1959C15.0548 18.1959 15.0414 18.1959 15.0281 18.1959C15.0146 18.1959 15.0013 18.1959 14.9878 18.1959C14.9744 18.1959 14.961 18.1959 14.9476 18.1959C14.9341 18.1959 14.9207 18.1959 14.9072 18.1959C14.8938 18.1959 14.8802 18.1959 14.8668 18.1959C14.8534 18.1959 14.8398 18.1959 14.8264 18.1959C14.8129 18.1959 14.7993 18.1959 14.7858 18.1959C14.7723 18.1959 14.7588 18.1959 14.7452 18.1959C14.7317 18.1959 14.7182 18.1959 14.7047 18.1959C14.6911 18.1959 14.6775 18.1959 14.6639 18.1959C14.6504 18.1959 14.6368 18.1959 14.6232 18.1959C14.6096 18.1959 14.5961 18.1959 14.5824 18.1959C14.5688 18.1959 14.5552 18.1959 14.5416 18.1959C14.528 18.1959 14.5143 18.1959 14.5007 18.1959C14.487 18.1959 14.4734 18.1959 14.4597 18.1959C14.446 18.1959 14.4324 18.1959 14.4187 18.1959C14.405 18.1959 14.3913 18.1959 14.3776 18.1959C14.3639 18.1959 14.3503 18.1959 14.3365 18.1959C14.3228 18.1959 14.3091 18.1959 14.2954 18.1959C14.2816 18.1959 14.2678 18.1959 14.2541 18.1959C14.2403 18.1959 14.2266 18.1959 14.2128 18.1959C14.199 18.1959 14.1853 18.1959 14.1715 18.1959C14.1577 18.1959 14.1439 18.1959 14.1301 18.1959C14.1163 18.1959 14.1025 18.1959 14.0887 18.1959C14.0749 18.1959 14.061 18.1959 14.0472 18.1959C14.0333 18.1959 14.0195 18.1959 14.0057 18.1959C13.9918 18.1959 13.9779 18.1959 13.9641 18.1959C13.9502 18.1959 13.9363 18.1959 13.9225 18.1959C13.9085 18.1959 13.8946 18.1959 13.8807 18.1959C13.8669 18.1959 13.8529 18.1959 13.839 18.1959C13.8251 18.1959 13.8112 18.1959 13.7972 18.1959C13.7833 18.1959 13.7693 18.1959 13.7553 18.1959C13.7414 18.1959 13.7275 18.1959 13.7135 18.1959C13.6995 18.1959 13.6856 18.1959 13.6716 18.1959C13.6576 18.1959 13.6436 18.1959 13.6296 18.1959C13.6156 18.1959 13.6016 18.1959 13.5876 18.1959C13.5735 18.1959 13.5595 18.1959 13.5455 18.1959C13.5314 18.1959 13.5174 18.1959 13.5034 18.1959C13.4893 18.1959 13.4753 18.1959 13.4612 18.1959C13.4471 18.1959 13.433 18.1959 13.419 18.1959C13.4049 18.1959 13.3908 18.1959 13.3767 18.1959C13.3627 18.1959 13.3485 18.1959 13.3344 18.1959C13.3203 18.1959 13.3062 18.1959 13.2921 18.1959C13.2779 18.1959 13.2638 18.1959 13.2497 18.1959C13.2356 18.1959 13.2214 18.1959 13.2072 18.1959C13.1931 18.1959 13.1789 18.1959 13.1648 18.1959C13.1506 18.1959 13.1365 18.1959 13.1222 18.1959C13.1081 18.1959 13.0939 18.1959 13.0797 18.1959C13.0655 18.1959 13.0513 18.1959 13.037 18.1959C13.0229 18.1959 13.0086 18.1959 12.9944 18.1959C12.9802 18.1959 12.9659 18.1959 12.9517 18.1959C12.9375 18.1959 12.9232 18.1959 12.909 18.1959C12.8948 18.1959 12.8805 18.1959 12.8662 18.1959C12.852 18.1959 12.8377 18.1959 12.8234 18.1959C12.8091 18.1959 12.7949 18.1959 12.7805 18.1959C12.7662 18.1959 12.752 18.1959 12.7377 18.1959C12.7234 18.1959 12.709 18.1959 12.6947 18.1959C12.6804 18.1959 12.6661 18.1959 12.6518 18.1959C12.6374 18.1959 12.6231 18.1959 12.6088 18.1959C12.5944 18.1959 12.58 18.1959 12.5657 18.1959C12.5513 18.1959 12.5369 18.1959 12.5225 18.1959C12.5082 18.1959 12.4938 18.1959 12.4794 18.1959C12.4651 18.1959 12.4507 18.1959 12.4363 18.1959C12.4219 18.1959 12.4075 18.1959 12.3931 18.1959C12.3787 18.1959 12.3643 18.1959 12.3498 18.1959C12.3354 18.1959 12.321 18.1959 12.3066 18.1959C12.2922 18.1959 12.2777 18.1959 12.2633 18.1959C12.2488 18.1959 12.2343 18.1959 12.2199 18.1959C12.2055 18.1959 12.191 18.1959 12.1765 18.1959C12.1621 18.1959 12.1476 18.1959 12.1331 18.1959C12.1186 18.1959 12.1042 18.1959 12.0896 18.1959C12.0751 18.1959 12.0607 18.1959 12.0462 18.1959C12.0316 18.1959 12.0172 18.1959 12.0026 18.1959C11.9881 18.1959 11.9736 18.1959 11.9591 18.1959C11.9446 18.1959 11.93 18.1959 11.9154 18.1959C11.901 18.1959 11.8864 18.1959 11.8719 18.1959C11.8573 18.1959 11.8428 18.1959 11.8282 18.1959C11.8137 18.1959 11.7991 18.1959 11.7845 18.1959C11.7699 18.1959 11.7554 18.1959 11.7408 18.1959C11.7262 18.1959 11.7116 18.1959 11.697 18.1959C11.6824 18.1959 11.6678 18.1959 11.6533 18.1959C11.6386 18.1959 11.6241 18.1959 11.6094 18.1959C11.5948 18.1959 11.5802 18.1959 11.5656 18.1959C11.551 18.1959 11.5364 18.1959 11.5217 18.1959C11.5071 18.1959 11.4925 18.1959 11.4778 18.1959C11.4632 18.1959 11.4485 18.1959 11.4339 18.1959C11.4192 18.1959 11.4046 18.1959 11.3899 18.1959C11.3753 18.1959 11.3606 18.1959 11.3459 18.1959C11.3313 18.1959 11.3166 18.1959 11.3019 18.1959C11.2872 18.1959 11.2725 18.1959 11.2579 18.1959C11.2432 18.1959 11.2285 18.1959 11.2138 18.1959C11.199 18.1959 11.1844 18.1959 11.1697 18.1959C11.155 18.1959 11.1403 18.1959 11.1256 18.1959C11.1109 18.1959 11.0961 18.1959 11.0814 18.1959C11.0666 18.1959 11.0519 18.1959 11.0372 18.1959C11.0224 18.1959 11.0077 18.1959 10.993 18.1959C10.9782 18.1959 10.9635 18.1959 10.9487 18.1959C10.934 18.1959 10.9192 18.1959 10.9045 18.1959C10.8897 18.1959 10.875 18.1959 10.8602 18.1959C10.8454 18.1959 10.8306 18.1959 10.8159 18.1959C10.8011 18.1959 10.7863 18.1959 10.7716 18.1959C10.7568 18.1959 10.742 18.1959 10.7272 18.1959C10.7124 18.1959 10.6976 18.1959 10.6828 18.1959C10.668 18.1959 10.6532 18.1959 10.6384 18.1959C10.6237 18.1959 10.6088 18.1959 10.594 18.1959C10.5792 18.1959 10.5643 18.1959 10.5495 18.1959C10.5348 18.1959 10.5199 18.1959 10.5051 18.1959C10.4902 18.1959 10.4754 18.1959 10.4606 18.1959C10.4458 18.1959 10.4309 18.1959 10.416 18.1959C10.4013 18.1959 10.3864 18.1959 10.3715 18.1959C10.3567 18.1959 10.3419 18.1959 10.327 18.1959C10.3121 18.1959 10.2972 18.1959 10.2824 18.1959C10.2675 18.1959 10.2527 18.1959 10.2379 18.1959C10.223 18.1959 10.2081 18.1959 10.1932 18.1959C10.1783 18.1959 10.1634 18.1959 10.1486 18.1959C10.1337 18.1959 10.1188 18.1959 10.1039 18.1959C10.089 18.1959 10.0741 18.1959 10.0593 18.1959C10.0443 18.1959 10.0294 18.1959 10.0146 18.1959C9.99963 18.1959 9.98476 18.1959 9.96981 18.1959C9.95494 18.1959 9.94007 18.1959 9.92513 18.1959C9.91018 18.1959 9.89531 18.1959 9.88036 18.1959C9.86549 18.1959 9.85054 18.1959 9.83559 18.1959C9.82072 18.1959 9.80578 18.1959 9.79083 18.1959C9.77596 18.1959 9.76101 18.1959 9.74606 18.1959C9.73111 18.1959 9.71617 18.1959 9.70122 18.1959C9.68635 18.1959 9.6714 18.1959 9.65645 18.1959C9.6415 18.1959 9.62656 18.1959 9.61161 18.1959C9.59666 18.1959 9.58171 18.1959 9.56676 18.1959C9.55182 18.1959 9.53687 18.1959 9.52192 18.1959C9.50689 18.1959 9.49194 18.1959 9.477 18.1959C9.46205 18.1959 9.4471 18.1959 9.43215 18.1959C9.41712 18.1959 9.40218 18.1959 9.38723 18.1959C9.37228 18.1959 9.35725 18.1959 9.3423 18.1959C9.32736 18.1959 9.31233 18.1959 9.29738 18.1959C9.28235 18.1959 9.2674 18.1959 9.25246 18.1959C9.23743 18.1959 9.22248 18.1959 9.20745 18.1959C9.19251 18.1959 9.17748 18.1959 9.16253 18.1959C9.1475 18.1959 9.13255 18.1959 9.11753 18.1959C9.1025 18.1959 9.08755 18.1959 9.07253 18.1959C9.05758 18.1959 9.04255 18.1959 9.02752 18.1959C9.01257 18.1959 8.99755 18.1959 8.98252 18.1959C8.96757 18.1959 8.95254 18.1959 8.93752 18.1959C8.92249 18.1959 8.90754 18.1959 8.89251 18.1959C8.87749 18.1959 8.86246 18.1959 8.84743 18.1959C8.83248 18.1959 8.81746 18.1959 8.80243 18.1959C8.7874 18.1959 8.77237 18.1959 8.75735 18.1959C8.74232 18.1959 8.72737 18.1959 8.71234 18.1959C8.69732 18.1959 8.68229 18.1959 8.66726 18.1959C8.65223 18.1959 8.63721 18.1959 8.62218 18.1959C8.60715 18.1959 8.59213 18.1959 8.5771 18.1959C8.56207 18.1959 8.54705 18.1959 8.53202 18.1959C8.51699 18.1959 8.50196 18.1959 8.48694 18.1959C8.47191 18.1959 8.45688 18.1959 8.44185 18.1959C8.42683 18.1959 8.41172 18.1959 8.39669 18.1959C8.38167 18.1959 8.36664 18.1959 8.35161 18.1959C8.33658 18.1959 8.32156 18.1959 8.30653 18.1959C8.2915 18.1959 8.2764 18.1959 8.26137 18.1959C8.24634 18.1959 8.23131 18.1959 8.21629 18.1959C8.20126 18.1959 8.18615 18.1959 8.17113 18.1959C8.1561 18.1959 8.14107 18.1959 8.12604 18.1959C8.11094 18.1959 8.09591 18.1959 8.08088 18.1959C8.06586 18.1959 8.05083 18.1959 8.03572 18.1959C8.02069 18.1959 8.00567 18.1959 7.99064 18.1959C7.97561 18.1959 7.96051 18.1959 7.94548 18.1959C7.93045 18.1959 7.91542 18.1959 7.90035 18.1959C7.8853 18.1959 7.87026 18.1959 7.85521 18.1959C7.84016 18.1959 7.82512 18.1959 7.81008 18.1959C7.79502 18.1959 7.77998 18.1959 7.76493 18.1959C7.74989 18.1959 7.73484 18.1959 7.71979 18.1959C7.70475 18.1959 7.6897 18.1959 7.67466 18.1959C7.65961 18.1959 7.64456 18.1959 7.62952 18.1959C7.61448 18.1959 7.59942 18.1959 7.58438 18.1959C7.56934 18.1959 7.5543 18.1959 7.53924 18.1959C7.5242 18.1959 7.50916 18.1959 7.49412 18.1959C7.47907 18.1959 7.46403 18.1959 7.44899 18.1959C7.43394 18.1959 7.4189 18.1959 7.40386 18.1959V19.9559ZM22.9348 19.0759C22.9348 19.9559 22.9339 19.9559 22.9339 19.9559H22.9315C22.9349 19.9559 22.9425 19.9563 22.9538 19.9567C22.9766 19.9576 23.0148 19.9596 23.0662 19.964C23.1693 19.973 23.3236 19.9914 23.5117 20.0292C23.8911 20.1055 24.3882 20.2569 24.8783 20.5527C25.802 21.1101 26.8434 22.2603 26.8434 24.8438H28.5834C28.5834 21.6594 27.2355 19.9258 25.7698 19.0412C25.0652 18.616 24.3678 18.4069 23.8511 18.303C23.5912 18.2507 23.3722 18.224 23.214 18.2104C23.1347 18.2036 23.0703 18.1999 23.023 18.1981C22.9993 18.1971 22.98 18.1966 22.9652 18.1963C22.9578 18.1962 22.9516 18.1961 22.9464 18.196C22.9439 18.196 22.9397 18.196 22.9397 18.196L22.937 18.1959H22.9358C22.9358 18.1959 22.9348 18.1959 22.9348 19.0759ZM26.8434 24.8438C26.8434 27.4272 25.802 28.5775 24.8783 29.1349C24.3882 29.4307 23.8911 29.5821 23.5117 29.6584C23.3236 29.6963 23.1693 29.7147 23.0662 29.7235C23.0148 29.7279 22.9766 29.73 22.9538 29.7309C22.9425 29.7314 22.935 29.7315 22.9317 29.7316H22.933C22.933 29.7316 22.9348 29.7316 22.9348 30.6116C22.9348 31.4916 22.9358 31.4916 22.9358 31.4916H22.937H22.9397C22.9397 31.4916 22.9439 31.4916 22.9465 31.4915C22.9516 31.4915 22.9578 31.4915 22.9652 31.4913C22.98 31.491 22.9993 31.4905 23.023 31.4895C23.0703 31.4876 23.1347 31.484 23.214 31.4771C23.3722 31.4635 23.5912 31.4369 23.8511 31.3846C24.3678 31.2807 25.0652 31.0716 25.7698 30.6463C27.2355 29.7619 28.5834 28.0282 28.5834 24.8438H26.8434ZM22.9348 29.7316H1.13181V31.4916H22.9348V29.7316ZM4.5722 17.7612C2.7709 17.0937 1.78748 14.9359 1.90399 12.5518C2.02057 10.166 3.20544 8.16379 5.059 7.73057L4.66725 6.01576C1.72312 6.70391 0.301106 9.70211 0.166105 12.4648C0.0310279 15.2292 1.15135 18.3679 3.97359 19.4139L4.5722 17.7612Z" fill="#03AD52"/>
</svg>
