<svg width="185" height="205" viewBox="0 0 185 205" fill="none" xmlns="http://www.w3.org/2000/svg">
<path d="M183.342 47.1075C185.553 44.8737 185.553 41.2522 183.342 39.0185L147.311 2.61839C145.1 0.384698 141.515 0.384687 139.305 2.61838C137.094 4.85206 137.094 8.4736 139.305 10.7073L171.332 43.063L139.304 75.4183C137.094 77.6521 137.094 81.2737 139.304 83.5076C141.515 85.7414 145.1 85.7414 147.311 83.5076L183.342 47.1075ZM47.1712 48.7827C72.3728 48.7826 105.415 48.7826 132.156 48.7827C145.527 48.7827 157.322 48.7827 165.775 48.7827C170.002 48.7827 173.393 48.7827 175.727 48.7827C176.894 48.7827 177.797 48.7827 178.408 48.7827C178.713 48.7827 178.946 48.7827 179.102 48.7827C179.18 48.7827 179.24 48.7827 179.279 48.7827C179.299 48.7827 179.314 48.7827 179.323 48.7827C179.329 48.7827 179.332 48.7827 179.335 48.7827C179.334 48.7827 179.336 48.7827 179.335 48.7827C179.336 48.7827 179.338 48.7827 179.338 43.063C179.338 37.3433 179.338 37.3433 179.337 37.3433C179.337 37.3433 179.338 37.3433 179.337 37.3433C179.335 37.3433 179.329 37.3433 179.323 37.3433C179.314 37.3433 179.299 37.3433 179.279 37.3433C179.24 37.3433 179.18 37.3433 179.102 37.3433C178.946 37.3433 178.713 37.3433 178.408 37.3433C177.797 37.3433 176.894 37.3433 175.727 37.3433C173.393 37.3433 170.002 37.3433 165.775 37.3432C157.322 37.3432 145.527 37.3432 132.156 37.3432C105.415 37.3432 72.3728 37.3432 47.1712 37.3433V48.7827ZM47.1712 118.357C39.3698 118.357 33.363 117.242 28.7438 115.532L24.8482 126.273C30.9522 128.533 38.3188 129.797 47.1712 129.797V118.357ZM31.9117 50.3357C36.0538 49.3687 41.0813 48.7827 47.1712 48.7827V37.3433C40.3746 37.3433 34.4761 37.9961 29.3623 39.1899L31.9117 50.3357ZM47.1712 129.797C47.2691 129.797 47.367 129.797 47.4649 129.797C47.5628 129.797 47.6607 129.797 47.7586 129.797C47.8565 129.797 47.9543 129.797 48.0522 129.797C48.1502 129.797 48.2481 129.797 48.346 129.797C48.4439 129.797 48.5418 129.797 48.6397 129.797C48.7376 129.797 48.8356 129.797 48.9335 129.797C49.0314 129.797 49.1293 129.797 49.2272 129.797C49.3251 129.797 49.423 129.797 49.5209 129.797C49.6189 129.797 49.7168 129.797 49.8147 129.797C49.9126 129.797 50.0105 129.797 50.1085 129.797C50.2063 129.797 50.3042 129.797 50.4022 129.797C50.5003 129.797 50.5981 129.797 50.6959 129.797C50.7937 129.797 50.892 129.797 50.9898 129.797C51.0876 129.797 51.1853 129.797 51.2831 129.797C51.3814 129.797 51.4792 129.797 51.577 129.797C51.6748 129.797 51.7726 129.797 51.8709 129.797C51.9687 129.797 52.0665 129.797 52.1643 129.797C52.2621 129.797 52.3604 129.797 52.4582 129.797C52.556 129.797 52.6538 129.797 52.7516 129.797C52.8494 129.797 52.9477 129.797 53.0455 129.797C53.1433 129.797 53.241 129.797 53.3388 129.797C53.4366 129.797 53.5344 129.797 53.6322 129.797C53.73 129.797 53.8283 129.797 53.9261 129.797C54.0239 129.797 54.1217 129.797 54.2195 129.797C54.3173 129.797 54.4151 129.797 54.5129 129.797C54.6106 129.797 54.7084 129.797 54.8062 129.797C54.904 129.797 55.0018 129.797 55.0996 129.797C55.1974 129.797 55.2952 129.797 55.393 129.797C55.4908 129.797 55.5886 129.797 55.6864 129.797C55.7842 129.797 55.8814 129.797 55.9792 129.797C56.077 129.797 56.1748 129.797 56.2726 129.797C56.3704 129.797 56.4682 129.797 56.5655 129.797C56.6633 129.797 56.761 129.797 56.8588 129.797C56.9566 129.797 57.0539 129.797 57.1517 129.797C57.2495 129.797 57.3473 129.797 57.4446 129.797C57.5424 129.797 57.6401 129.797 57.7374 129.797C57.8352 129.797 57.933 129.797 58.0303 129.797C58.1281 129.797 58.2254 129.797 58.3231 129.797C58.4209 129.797 58.5182 129.797 58.616 129.797C58.7133 129.797 58.8111 129.797 58.9084 129.797C59.0061 129.797 59.1034 129.797 59.2012 129.797C59.2985 129.797 59.3958 129.797 59.4936 129.797C59.5908 129.797 59.6886 129.797 59.7859 129.797C59.8832 129.797 59.981 129.797 60.0783 129.797C60.1755 129.797 60.2728 129.797 60.3706 129.797C60.4679 129.797 60.5652 129.797 60.6624 129.797C60.7597 129.797 60.857 129.797 60.9548 129.797C61.0521 129.797 61.1493 129.797 61.2466 129.797C61.3439 129.797 61.4412 129.797 61.5384 129.797C61.6357 129.797 61.733 129.797 61.8303 129.797C61.9276 129.797 62.0248 129.797 62.1216 129.797C62.2189 129.797 62.3162 129.797 62.4134 129.797C62.5107 129.797 62.608 129.797 62.7047 129.797C62.802 129.797 62.8993 129.797 62.9961 129.797C63.0933 129.797 63.1906 129.797 63.2874 129.797C63.3847 129.797 63.4814 129.797 63.5787 129.797C63.676 129.797 63.7727 129.797 63.8695 129.797C63.9668 129.797 64.0635 129.797 64.1608 129.797C64.2576 129.797 64.3543 129.797 64.4516 129.797C64.5484 129.797 64.6451 129.797 64.7424 129.797C64.8392 129.797 64.936 129.797 65.0327 129.797C65.1295 129.797 65.2262 129.797 65.323 129.797C65.4203 129.797 65.517 129.797 65.6138 129.797C65.7106 129.797 65.8068 129.797 65.9036 129.797C66.0003 129.797 66.0971 129.797 66.1939 129.797C66.2906 129.797 66.3874 129.797 66.4836 129.797C66.5804 129.797 66.6772 129.797 66.7734 129.797C66.8702 129.797 66.9669 129.797 67.0632 129.797C67.16 129.797 67.2562 129.797 67.353 129.797C67.4492 129.797 67.546 129.797 67.6422 129.797C67.7385 129.797 67.8352 129.797 67.9315 129.797C68.0277 129.797 68.1245 129.797 68.2207 129.797C68.317 129.797 68.4132 129.797 68.5095 129.797C68.6057 129.797 68.702 129.797 68.7982 129.797C68.8945 129.797 68.9907 129.797 69.087 129.797C69.1832 129.797 69.2795 129.797 69.3757 129.797C69.4715 129.797 69.5677 129.797 69.6639 129.797C69.7602 129.797 69.8559 129.797 69.9522 129.797C70.0479 129.797 70.1442 129.797 70.2399 129.797C70.3361 129.797 70.4319 129.797 70.5281 129.797C70.6238 129.797 70.7196 129.797 70.8158 129.797C70.9116 129.797 71.0073 129.797 71.103 129.797C71.1993 129.797 71.295 129.797 71.3907 129.797C71.4865 129.797 71.5822 129.797 71.6779 129.797C71.7737 129.797 71.8689 129.797 71.9646 129.797C72.0604 129.797 72.1561 129.797 72.2518 129.797C72.3471 129.797 72.4428 129.797 72.538 129.797C72.6337 129.797 72.7295 129.797 72.8247 129.797C72.9204 129.797 73.0156 129.797 73.1109 129.797C73.2066 129.797 73.3018 129.797 73.397 129.797C73.4922 129.797 73.588 129.797 73.6832 129.797C73.7784 129.797 73.8736 129.797 73.9689 129.797C74.0641 129.797 74.1593 129.797 74.2545 129.797C74.3492 129.797 74.4444 129.797 74.5396 129.797C74.6349 129.797 74.7296 129.797 74.8248 129.797C74.9195 129.797 75.0147 129.797 75.1094 129.797C75.2046 129.797 75.2993 129.797 75.3946 129.797C75.4893 129.797 75.584 129.797 75.6787 129.797C75.7739 129.797 75.8686 129.797 75.9633 129.797C76.058 129.797 76.1527 129.797 76.2474 129.797C76.3421 129.797 76.4368 129.797 76.531 129.797C76.6257 129.797 76.7204 129.797 76.8151 129.797C76.9093 129.797 77.004 129.797 77.0982 129.797C77.1929 129.797 77.2871 129.797 77.3818 129.797C77.476 129.797 77.5702 129.797 77.6644 129.797C77.7591 129.797 77.8533 129.797 77.9474 129.797C78.0416 129.797 78.1358 129.797 78.23 129.797C78.3242 129.797 78.4184 129.797 78.5121 129.797C78.6063 129.797 78.7005 129.797 78.7946 129.797C78.8883 129.797 78.9825 129.797 79.0762 129.797C79.1704 129.797 79.264 129.797 79.3577 129.797C79.4519 129.797 79.5456 129.797 79.6393 129.797C79.7329 129.797 79.8266 129.797 79.9203 129.797C80.014 129.797 80.1076 129.797 80.2013 129.797C80.295 129.797 80.3886 129.797 80.4818 129.797C80.5755 129.797 80.6692 129.797 80.7623 129.797C80.856 129.797 80.9492 129.797 81.0428 129.797C81.136 129.797 81.2291 129.797 81.3228 129.797C81.416 129.797 81.5091 129.797 81.6023 129.797C81.6955 129.797 81.7886 129.797 81.8818 129.797C81.9749 129.797 82.0676 129.797 82.1608 129.797C82.2539 129.797 82.3465 129.797 82.4397 129.797C82.5329 129.797 82.6255 129.797 82.7182 129.797C82.8113 129.797 82.904 129.797 82.9966 129.797C83.0893 129.797 83.1819 129.797 83.2745 129.797C83.3672 129.797 83.4598 129.797 83.5525 129.797C83.6451 129.797 83.7378 129.797 83.8299 129.797C83.9225 129.797 84.0152 129.797 84.1073 129.797C84.2 129.797 84.2921 129.797 84.3842 129.797C84.4769 129.797 84.569 129.797 84.6611 129.797C84.7533 129.797 84.8454 129.797 84.9375 129.797C85.0297 129.797 85.1218 129.797 85.2139 129.797C85.3055 129.797 85.3977 129.797 85.4898 129.797C85.5814 129.797 85.6735 129.797 85.7652 129.797C85.8568 129.797 85.9489 129.797 86.0405 129.797C86.1321 129.797 86.2237 129.797 86.3154 129.797C86.407 129.797 86.4986 129.797 86.5902 129.797C86.6818 129.797 86.7729 129.797 86.8645 129.797C86.9562 129.797 87.0473 129.797 87.1389 129.797C87.23 129.797 87.3211 129.797 87.4127 129.797C87.5038 129.797 87.5949 129.797 87.686 129.797C87.7771 129.797 87.8682 129.797 87.9593 129.797C88.0504 129.797 88.141 129.797 88.2321 129.797C88.3232 129.797 88.4138 129.797 88.5044 129.797C88.5955 129.797 88.6861 129.797 88.7766 129.797C88.8677 129.797 88.9583 129.797 89.0489 129.797C89.1395 129.797 89.2301 129.797 89.3202 129.797C89.4107 129.797 89.5013 129.797 89.5919 129.797C89.682 129.797 89.7726 129.797 89.8626 129.797C89.9527 129.797 90.0433 129.797 90.1334 129.797C90.2234 129.797 90.3135 129.797 90.4036 129.797C90.4937 129.797 90.5837 129.797 90.6738 129.797C90.7634 129.797 90.8534 129.797 90.943 129.797C91.0331 129.797 91.1226 129.797 91.2127 129.797C91.3022 129.797 91.3918 129.797 91.4814 129.797C91.5709 129.797 91.6605 129.797 91.75 129.797C91.8396 129.797 91.9292 129.797 92.0187 129.797C92.1077 129.797 92.1973 129.797 92.2864 129.797C92.3759 129.797 92.465 129.797 92.554 129.797C92.643 129.797 92.7321 129.797 92.8211 129.797C92.9102 129.797 92.9992 129.797 93.0882 129.797C93.1773 129.797 93.2658 129.797 93.3549 129.797C93.4434 129.797 93.5324 129.797 93.6209 129.797C93.7095 129.797 93.798 129.797 93.8865 129.797C93.9756 129.797 94.0636 129.797 94.1521 129.797C94.2406 129.797 94.3292 129.797 94.4172 129.797C94.5057 129.797 94.5937 129.797 94.6823 129.797C94.7703 129.797 94.8583 129.797 94.9463 129.797C95.0343 129.797 95.1223 129.797 95.2103 129.797C95.2983 129.797 95.3864 129.797 95.4744 129.797C95.5619 129.797 95.6499 129.797 95.7374 129.797C95.8249 129.797 95.9129 129.797 96.0004 129.797C96.0879 129.797 96.1754 129.797 96.2629 129.797C96.3504 129.797 96.4374 129.797 96.5249 129.797C96.6124 129.797 96.6993 129.797 96.7868 129.797C96.8738 129.797 96.9608 129.797 97.0478 129.797C97.1353 129.797 97.2223 129.797 97.3093 129.797C97.3957 129.797 97.4827 129.797 97.5697 129.797C97.6562 129.797 97.7431 129.797 97.8296 129.797C97.9166 129.797 98.0031 129.797 98.0895 129.797C98.176 129.797 98.2625 129.797 98.3489 129.797C98.4354 129.797 98.5219 129.797 98.6078 129.797C98.6943 129.797 98.7803 129.797 98.8667 129.797C98.9527 129.797 99.0386 129.797 99.1246 129.797C99.2105 129.797 99.2965 129.797 99.3824 129.797C99.4684 129.797 99.5544 129.797 99.6398 129.797C99.7258 129.797 99.8112 129.797 99.8966 129.797C99.9826 129.797 100.068 129.797 100.153 129.797C100.239 129.797 100.324 129.797 100.409 129.797C100.495 129.797 100.58 129.797 100.665 129.797C100.751 129.797 100.835 129.797 100.92 129.797C101.005 129.797 101.091 129.797 101.175 129.797C101.26 129.797 101.345 129.797 101.43 129.797C101.514 129.797 101.599 129.797 101.684 129.797C101.769 129.797 101.853 129.797 101.937 129.797C102.022 129.797 102.106 129.797 102.191 129.797C102.275 129.797 102.359 129.797 102.443 129.797C102.527 129.797 102.612 129.797 102.696 129.797C102.779 129.797 102.863 129.797 102.947 129.797C103.031 129.797 103.115 129.797 103.199 129.797C103.282 129.797 103.366 129.797 103.45 129.797C103.533 129.797 103.617 129.797 103.7 129.797C103.784 129.797 103.867 129.797 103.95 129.797C104.034 129.797 104.117 129.797 104.2 129.797C104.283 129.797 104.366 129.797 104.449 129.797C104.532 129.797 104.615 129.797 104.698 129.797C104.781 129.797 104.863 129.797 104.946 129.797C105.029 129.797 105.111 129.797 105.194 129.797C105.276 129.797 105.359 129.797 105.441 129.797C105.523 129.797 105.606 129.797 105.688 129.797C105.77 129.797 105.852 129.797 105.935 129.797C106.016 129.797 106.098 129.797 106.18 129.797C106.262 129.797 106.344 129.797 106.426 129.797C106.507 129.797 106.589 129.797 106.671 129.797C106.752 129.797 106.834 129.797 106.915 129.797C106.996 129.797 107.078 129.797 107.159 129.797C107.24 129.797 107.322 129.797 107.403 129.797C107.484 129.797 107.565 129.797 107.646 129.797C107.727 129.797 107.808 129.797 107.888 129.797C107.969 129.797 108.05 129.797 108.13 129.797C108.211 129.797 108.291 129.797 108.372 129.797C108.452 129.797 108.533 129.797 108.613 129.797C108.693 129.797 108.774 129.797 108.854 129.797C108.934 129.797 109.014 129.797 109.094 129.797C109.174 129.797 109.254 129.797 109.334 129.797C109.413 129.797 109.493 129.797 109.572 129.797C109.652 129.797 109.731 129.797 109.811 129.797C109.89 129.797 109.97 129.797 110.049 129.797C110.128 129.797 110.208 129.797 110.287 129.797C110.366 129.797 110.445 129.797 110.524 129.797C110.603 129.797 110.682 129.797 110.76 129.797C110.839 129.797 110.918 129.797 110.997 129.797C111.075 129.797 111.154 129.797 111.232 129.797C111.311 129.797 111.389 129.797 111.467 129.797C111.545 129.797 111.623 129.797 111.702 129.797C111.779 129.797 111.858 129.797 111.935 129.797C112.013 129.797 112.091 129.797 112.169 129.797C112.247 129.797 112.324 129.797 112.402 129.797C112.479 129.797 112.557 129.797 112.634 129.797C112.712 129.797 112.789 129.797 112.866 129.797C112.943 129.797 113.02 129.797 113.097 129.797C113.174 129.797 113.251 129.797 113.328 129.797C113.405 129.797 113.481 129.797 113.558 129.797C113.635 129.797 113.712 129.797 113.788 129.797C113.864 129.797 113.941 129.797 114.017 129.797C114.093 129.797 114.17 129.797 114.246 129.797C114.321 129.797 114.398 129.797 114.474 129.797C114.549 129.797 114.625 129.797 114.701 129.797C114.777 129.797 114.853 129.797 114.928 129.797C115.003 129.797 115.079 129.797 115.154 129.797C115.23 129.797 115.305 129.797 115.38 129.797C115.455 129.797 115.531 129.797 115.606 129.797C115.68 129.797 115.755 129.797 115.83 129.797C115.905 129.797 115.98 129.797 116.054 129.797C116.129 129.797 116.203 129.797 116.278 129.797C116.352 129.797 116.427 129.797 116.501 129.797C116.575 129.797 116.649 129.797 116.723 129.797C116.797 129.797 116.871 129.797 116.945 129.797C117.019 129.797 117.093 129.797 117.166 129.797C117.24 129.797 117.313 129.797 117.387 129.797C117.46 129.797 117.534 129.797 117.607 129.797C117.68 129.797 117.753 129.797 117.827 129.797C117.9 129.797 117.972 129.797 118.045 129.797C118.118 129.797 118.191 129.797 118.264 129.797C118.336 129.797 118.409 129.797 118.481 129.797C118.554 129.797 118.626 129.797 118.698 129.797C118.771 129.797 118.843 129.797 118.915 129.797C118.987 129.797 119.059 129.797 119.131 129.797C119.203 129.797 119.274 129.797 119.346 129.797C119.418 129.797 119.49 129.797 119.561 129.797C119.633 129.797 119.704 129.797 119.775 129.797C119.846 129.797 119.918 129.797 119.989 129.797C120.06 129.797 120.131 129.797 120.201 129.797C120.272 129.797 120.343 129.797 120.414 129.797C120.484 129.797 120.555 129.797 120.625 129.797C120.696 129.797 120.767 129.797 120.837 129.797C120.907 129.797 120.977 129.797 121.047 129.797C121.117 129.797 121.187 129.797 121.257 129.797C121.326 129.797 121.396 129.797 121.466 129.797C121.535 129.797 121.605 129.797 121.674 129.797C121.744 129.797 121.813 129.797 121.882 129.797C121.952 129.797 122.021 129.797 122.09 129.797C122.159 129.797 122.228 129.797 122.297 129.797C122.365 129.797 122.434 129.797 122.503 129.797C122.571 129.797 122.639 129.797 122.708 129.797C122.776 129.797 122.845 129.797 122.913 129.797C122.981 129.797 123.049 129.797 123.117 129.797C123.185 129.797 123.252 129.797 123.32 129.797C123.388 129.797 123.456 129.797 123.523 129.797C123.591 129.797 123.658 129.797 123.725 129.797C123.792 129.797 123.86 129.797 123.927 129.797C123.994 129.797 124.061 129.797 124.127 129.797C124.194 129.797 124.261 129.797 124.328 129.797C124.395 129.797 124.461 129.797 124.527 129.797C124.594 129.797 124.66 129.797 124.727 129.797C124.792 129.797 124.859 129.797 124.925 129.797C124.991 129.797 125.056 129.797 125.122 129.797C125.188 129.797 125.254 129.797 125.319 129.797C125.384 129.797 125.45 129.797 125.515 129.797C125.58 129.797 125.646 129.797 125.711 129.797C125.776 129.797 125.841 129.797 125.906 129.797C125.971 129.797 126.035 129.797 126.1 129.797C126.165 129.797 126.229 129.797 126.293 129.797C126.358 129.797 126.422 129.797 126.486 129.797C126.55 129.797 126.614 129.797 126.678 129.797C126.742 129.797 126.806 129.797 126.87 129.797C126.934 129.797 126.997 129.797 127.061 129.797C127.124 129.797 127.187 129.797 127.251 129.797C127.314 129.797 127.377 129.797 127.44 129.797C127.503 129.797 127.566 129.797 127.629 129.797C127.692 129.797 127.754 129.797 127.817 129.797C127.879 129.797 127.942 129.797 128.004 129.797C128.066 129.797 128.129 129.797 128.19 129.797C128.253 129.797 128.315 129.797 128.376 129.797C128.438 129.797 128.5 129.797 128.562 129.797C128.623 129.797 128.685 129.797 128.746 129.797C128.808 129.797 128.869 129.797 128.93 129.797C128.991 129.797 129.052 129.797 129.113 129.797C129.174 129.797 129.234 129.797 129.295 129.797C129.356 129.797 129.416 129.797 129.477 129.797C129.537 129.797 129.598 129.797 129.658 129.797C129.718 129.797 129.778 129.797 129.838 129.797C129.898 129.797 129.957 129.797 130.017 129.797C130.077 129.797 130.137 129.797 130.196 129.797C130.255 129.797 130.315 129.797 130.374 129.797C130.433 129.797 130.492 129.797 130.551 129.797C130.61 129.797 130.669 129.797 130.727 129.797C130.786 129.797 130.845 129.797 130.903 129.797C130.962 129.797 131.02 129.797 131.078 129.797C131.137 129.797 131.195 129.797 131.253 129.797C131.311 129.797 131.369 129.797 131.426 129.797C131.484 129.797 131.542 129.797 131.599 129.797C131.656 129.797 131.714 129.797 131.771 129.797C131.828 129.797 131.885 129.797 131.942 129.797C131.999 129.797 132.056 129.797 132.113 129.797C132.17 129.797 132.226 129.797 132.283 129.797C132.339 129.797 132.396 129.797 132.452 129.797C132.508 129.797 132.564 129.797 132.62 129.797C132.676 129.797 132.732 129.797 132.787 129.797C132.843 129.797 132.898 129.797 132.954 129.797C133.01 129.797 133.065 129.797 133.12 129.797C133.175 129.797 133.23 129.797 133.285 129.797C133.34 129.797 133.395 129.797 133.45 129.797C133.504 129.797 133.559 129.797 133.613 129.797C133.668 129.797 133.722 129.797 133.776 129.797C133.831 129.797 133.884 129.797 133.938 129.797C133.992 129.797 134.046 129.797 134.1 129.797C134.153 129.797 134.207 129.797 134.26 129.797C134.313 129.797 134.367 129.797 134.42 129.797C134.473 129.797 134.526 129.797 134.579 129.797C134.631 129.797 134.684 129.797 134.737 129.797C134.789 129.797 134.842 129.797 134.894 129.797C134.946 129.797 134.999 129.797 135.051 129.797C135.103 129.797 135.155 129.797 135.206 129.797C135.258 129.797 135.31 129.797 135.361 129.797C135.413 129.797 135.464 129.797 135.516 129.797C135.567 129.797 135.618 129.797 135.669 129.797C135.72 129.797 135.771 129.797 135.821 129.797C135.872 129.797 135.923 129.797 135.973 129.797C136.024 129.797 136.074 129.797 136.124 129.797C136.174 129.797 136.224 129.797 136.274 129.797C136.324 129.797 136.374 129.797 136.424 129.797C136.473 129.797 136.523 129.797 136.572 129.797C136.621 129.797 136.671 129.797 136.719 129.797C136.769 129.797 136.818 129.797 136.867 129.797C136.915 129.797 136.964 129.797 137.012 129.797C137.061 129.797 137.11 129.797 137.157 129.797C137.206 129.797 137.254 129.797 137.302 129.797C137.35 129.797 137.398 129.797 137.446 129.797C137.493 129.797 137.541 129.797 137.588 129.797C137.636 129.797 137.683 129.797 137.73 129.797C137.777 129.797 137.824 129.797 137.871 129.797C137.918 129.797 137.965 129.797 138.011 129.797C138.058 129.797 138.104 129.797 138.15 129.797C138.197 129.797 138.243 129.797 138.289 129.797C138.335 129.797 138.381 129.797 138.427 129.797C138.473 129.797 138.518 129.797 138.563 129.797C138.609 129.797 138.654 129.797 138.699 129.797C138.744 129.797 138.79 129.797 138.834 129.797C138.879 129.797 138.924 129.797 138.969 129.797C139.013 129.797 139.058 129.797 139.102 129.797C139.146 129.797 139.19 129.797 139.234 129.797C139.279 129.797 139.322 129.797 139.366 129.797C139.41 129.797 139.453 129.797 139.497 129.797C139.54 129.797 139.583 129.797 139.626 129.797C139.67 129.797 139.712 129.797 139.756 129.797C139.798 129.797 139.841 129.797 139.884 129.797C139.926 129.797 139.969 129.797 140.011 129.797C140.053 129.797 140.095 129.797 140.137 129.797C140.179 129.797 140.221 129.797 140.263 129.797C140.304 129.797 140.346 129.797 140.387 129.797C140.429 129.797 140.47 129.797 140.511 129.797C140.552 129.797 140.593 129.797 140.634 129.797C140.675 129.797 140.715 129.797 140.756 129.797C140.796 129.797 140.837 129.797 140.877 129.797C140.917 129.797 140.957 129.797 140.997 129.797C141.037 129.797 141.077 129.797 141.116 129.797C141.156 129.797 141.195 129.797 141.234 129.797C141.274 129.797 141.313 129.797 141.352 129.797C141.391 129.797 141.43 129.797 141.469 129.797C141.507 129.797 141.546 129.797 141.584 129.797C141.622 129.797 141.661 129.797 141.699 129.797C141.737 129.797 141.775 129.797 141.813 129.797C141.85 129.797 141.888 129.797 141.926 129.797C141.963 129.797 142 129.797 142.038 129.797C142.075 129.797 142.112 129.797 142.148 129.797C142.186 129.797 142.222 129.797 142.259 129.797C142.296 129.797 142.332 129.797 142.368 129.797C142.404 129.797 142.44 129.797 142.476 129.797C142.512 129.797 142.548 129.797 142.584 129.797C142.619 129.797 142.655 129.797 142.69 129.797C142.725 129.797 142.76 129.797 142.796 129.797C142.831 129.797 142.865 129.797 142.9 129.797C142.935 129.797 142.969 129.797 143.004 129.797C143.038 129.797 143.072 129.797 143.107 129.797C143.141 129.797 143.175 129.797 143.208 129.797C143.242 129.797 143.276 129.797 143.309 129.797C143.343 129.797 143.376 129.797 143.409 129.797C143.442 129.797 143.475 129.797 143.508 129.797C143.541 129.797 143.574 129.797 143.606 129.797C143.639 129.797 143.671 129.797 143.703 129.797C143.735 129.797 143.767 129.797 143.799 129.797C143.831 129.797 143.862 129.797 143.894 129.797C143.926 129.797 143.957 129.797 143.988 129.797C144.019 129.797 144.05 129.797 144.082 129.797C144.113 129.797 144.143 129.797 144.174 129.797C144.204 129.797 144.235 129.797 144.265 129.797C144.295 129.797 144.325 129.797 144.355 129.797C144.385 129.797 144.415 129.797 144.445 129.797C144.474 129.797 144.504 129.797 144.533 129.797C144.562 129.797 144.591 129.797 144.62 129.797C144.649 129.797 144.678 129.797 144.707 129.797C144.735 129.797 144.764 129.797 144.792 129.797C144.82 129.797 144.849 129.797 144.876 129.797C144.904 129.797 144.932 129.797 144.96 129.797C144.988 129.797 145.015 129.797 145.042 129.797C145.069 129.797 145.097 129.797 145.123 129.797C145.151 129.797 145.177 129.797 145.204 129.797C145.231 129.797 145.257 129.797 145.283 129.797C145.31 129.797 145.336 129.797 145.362 129.797C145.388 129.797 145.414 129.797 145.439 129.797C145.465 129.797 145.49 129.797 145.516 129.797C145.541 129.797 145.567 129.797 145.591 129.797C145.617 129.797 145.641 129.797 145.666 129.797C145.691 129.797 145.715 129.797 145.74 129.797C145.764 129.797 145.788 129.797 145.812 129.797C145.836 129.797 145.859 129.797 145.883 129.797C145.907 129.797 145.93 129.797 145.954 129.797C145.977 129.797 146 129.797 146.023 129.797C146.046 129.797 146.069 129.797 146.091 129.797C146.114 129.797 146.136 129.797 146.158 129.797C146.181 129.797 146.203 129.797 146.225 129.797C146.247 129.797 146.269 129.797 146.29 129.797C146.312 129.797 146.333 129.797 146.355 129.797C146.376 129.797 146.397 129.797 146.418 129.797C146.438 129.797 146.46 129.797 146.48 129.797C146.5 129.797 146.521 129.797 146.541 129.797C146.561 129.797 146.582 129.797 146.601 129.797C146.621 129.797 146.641 129.797 146.66 129.797C146.68 129.797 146.699 129.797 146.718 129.797C146.738 129.797 146.757 129.797 146.775 129.797C146.794 129.797 146.813 129.797 146.831 129.797C146.85 129.797 146.868 129.797 146.886 129.797C146.904 129.797 146.922 129.797 146.94 129.797C146.958 129.797 146.975 129.797 146.993 129.797C147.01 129.797 147.027 129.797 147.044 129.797C147.062 129.797 147.078 129.797 147.095 129.797C147.112 129.797 147.128 129.797 147.145 129.797C147.161 129.797 147.177 129.797 147.193 129.797C147.209 129.797 147.225 129.797 147.241 129.797C147.256 129.797 147.272 129.797 147.287 129.797C147.303 129.797 147.318 129.797 147.333 129.797C147.347 129.797 147.362 129.797 147.377 129.797C147.391 129.797 147.406 129.797 147.42 129.797C147.434 129.797 147.448 129.797 147.462 129.797C147.476 129.797 147.489 129.797 147.503 129.797C147.517 129.797 147.53 129.797 147.543 129.797C147.556 129.797 147.569 129.797 147.582 129.797C147.594 129.797 147.607 129.797 147.62 129.797C147.632 129.797 147.644 129.797 147.656 129.797C147.668 129.797 147.68 129.797 147.692 129.797C147.704 129.797 147.715 129.797 147.726 129.797C147.738 129.797 147.749 129.797 147.76 129.797C147.771 129.797 147.781 129.797 147.792 129.797C147.802 129.797 147.813 129.797 147.823 129.797C147.833 129.797 147.844 129.797 147.853 129.797C147.863 129.797 147.873 129.797 147.882 129.797C147.892 129.797 147.901 129.797 147.91 129.797C147.919 129.797 147.928 129.797 147.937 129.797C147.946 129.797 147.954 129.797 147.962 129.797C147.971 129.797 147.979 129.797 147.987 129.797C147.995 129.797 148.003 129.797 148.01 129.797C148.018 129.797 148.026 129.797 148.033 129.797C148.04 129.797 148.047 129.797 148.054 129.797C148.061 129.797 148.067 129.797 148.074 129.797C148.08 129.797 148.087 129.797 148.093 129.797C148.099 129.797 148.105 129.797 148.111 129.797C148.116 129.797 148.122 129.797 148.128 129.797C148.133 129.797 148.138 129.797 148.143 129.797C148.148 129.797 148.153 129.797 148.158 129.797C148.162 129.797 148.166 129.797 148.17 129.797C148.175 129.797 148.179 129.797 148.183 129.797C148.186 129.797 148.191 129.797 148.194 129.797C148.197 129.797 148.2 129.797 148.203 129.797C148.206 129.797 148.21 129.797 148.212 129.797C148.215 129.797 148.217 129.797 148.22 129.797C148.222 129.797 148.224 129.797 148.226 129.797C148.224 129.797 148.228 129.797 148.226 129.797C148.228 129.797 148.234 129.797 148.235 129.797C148.234 129.797 148.237 129.797 148.235 129.797C148.236 129.797 148.241 129.797 148.241 124.077C148.241 118.357 148.24 118.357 148.24 118.357C148.239 118.357 148.241 118.357 148.24 118.357C148.239 118.357 148.233 118.357 148.231 118.357C148.23 118.357 148.233 118.357 148.231 118.357C148.23 118.357 148.222 118.357 148.22 118.357C148.217 118.357 148.215 118.357 148.212 118.357C148.21 118.357 148.206 118.357 148.203 118.357C148.2 118.357 148.197 118.357 148.194 118.357C148.191 118.357 148.186 118.357 148.183 118.357C148.179 118.357 148.175 118.357 148.17 118.357C148.166 118.357 148.162 118.357 148.158 118.357C148.153 118.357 148.148 118.357 148.143 118.357C148.138 118.357 148.133 118.357 148.128 118.357C148.122 118.357 148.116 118.357 148.111 118.357C148.105 118.357 148.099 118.357 148.093 118.357C148.087 118.357 148.08 118.357 148.074 118.357C148.067 118.357 148.061 118.357 148.054 118.357C148.047 118.357 148.04 118.357 148.033 118.357C148.026 118.357 148.018 118.357 148.01 118.357C148.003 118.357 147.995 118.357 147.987 118.357C147.979 118.357 147.971 118.357 147.962 118.357C147.954 118.357 147.946 118.357 147.937 118.357C147.928 118.357 147.919 118.357 147.91 118.357C147.901 118.357 147.892 118.357 147.882 118.357C147.873 118.357 147.863 118.357 147.853 118.357C147.844 118.357 147.833 118.357 147.823 118.357C147.813 118.357 147.802 118.357 147.792 118.357C147.781 118.357 147.771 118.357 147.76 118.357C147.749 118.357 147.738 118.357 147.726 118.357C147.715 118.357 147.704 118.357 147.692 118.357C147.68 118.357 147.668 118.357 147.656 118.357C147.644 118.357 147.632 118.357 147.62 118.357C147.607 118.357 147.594 118.357 147.582 118.357C147.569 118.357 147.556 118.357 147.543 118.357C147.53 118.357 147.517 118.357 147.503 118.357C147.489 118.357 147.476 118.357 147.462 118.357C147.448 118.357 147.434 118.357 147.42 118.357C147.406 118.357 147.391 118.357 147.377 118.357C147.362 118.357 147.347 118.357 147.333 118.357C147.318 118.357 147.303 118.357 147.287 118.357C147.272 118.357 147.256 118.357 147.241 118.357C147.225 118.357 147.209 118.357 147.193 118.357C147.177 118.357 147.161 118.357 147.145 118.357C147.128 118.357 147.112 118.357 147.095 118.357C147.078 118.357 147.062 118.357 147.044 118.357C147.027 118.357 147.01 118.357 146.993 118.357C146.975 118.357 146.958 118.357 146.94 118.357C146.922 118.357 146.904 118.357 146.886 118.357C146.868 118.357 146.85 118.357 146.831 118.357C146.813 118.357 146.794 118.357 146.775 118.357C146.757 118.357 146.738 118.357 146.718 118.357C146.699 118.357 146.68 118.357 146.66 118.357C146.641 118.357 146.621 118.357 146.601 118.357C146.582 118.357 146.561 118.357 146.541 118.357C146.521 118.357 146.5 118.357 146.48 118.357C146.46 118.357 146.438 118.357 146.418 118.357C146.397 118.357 146.376 118.357 146.355 118.357C146.333 118.357 146.312 118.357 146.29 118.357C146.269 118.357 146.247 118.357 146.225 118.357C146.203 118.357 146.181 118.357 146.158 118.357C146.136 118.357 146.114 118.357 146.091 118.357C146.069 118.357 146.046 118.357 146.023 118.357C146 118.357 145.977 118.357 145.954 118.357C145.93 118.357 145.907 118.357 145.883 118.357C145.859 118.357 145.836 118.357 145.812 118.357C145.788 118.357 145.764 118.357 145.74 118.357C145.715 118.357 145.691 118.357 145.666 118.357C145.641 118.357 145.617 118.357 145.591 118.357C145.567 118.357 145.541 118.357 145.516 118.357C145.49 118.357 145.465 118.357 145.439 118.357C145.414 118.357 145.388 118.357 145.362 118.357C145.336 118.357 145.31 118.357 145.283 118.357C145.257 118.357 145.231 118.357 145.204 118.357C145.177 118.357 145.151 118.357 145.123 118.357C145.097 118.357 145.069 118.357 145.042 118.357C145.015 118.357 144.988 118.357 144.96 118.357C144.932 118.357 144.904 118.357 144.876 118.357C144.849 118.357 144.82 118.357 144.792 118.357C144.764 118.357 144.735 118.357 144.707 118.357C144.678 118.357 144.649 118.357 144.62 118.357C144.591 118.357 144.562 118.357 144.533 118.357C144.504 118.357 144.474 118.357 144.445 118.357C144.415 118.357 144.385 118.357 144.355 118.357C144.325 118.357 144.295 118.357 144.265 118.357C144.235 118.357 144.204 118.357 144.174 118.357C144.143 118.357 144.113 118.357 144.082 118.357C144.05 118.357 144.019 118.357 143.988 118.357C143.957 118.357 143.926 118.357 143.894 118.357C143.862 118.357 143.831 118.357 143.799 118.357C143.767 118.357 143.735 118.357 143.703 118.357C143.671 118.357 143.639 118.357 143.606 118.357C143.574 118.357 143.541 118.357 143.508 118.357C143.475 118.357 143.442 118.357 143.409 118.357C143.376 118.357 143.343 118.357 143.309 118.357C143.276 118.357 143.242 118.357 143.208 118.357C143.175 118.357 143.141 118.357 143.107 118.357C143.072 118.357 143.038 118.357 143.004 118.357C142.969 118.357 142.935 118.357 142.9 118.357C142.865 118.357 142.831 118.357 142.796 118.357C142.76 118.357 142.725 118.357 142.69 118.357C142.655 118.357 142.619 118.357 142.584 118.357C142.548 118.357 142.512 118.357 142.476 118.357C142.44 118.357 142.404 118.357 142.368 118.357C142.332 118.357 142.296 118.357 142.259 118.357C142.222 118.357 142.186 118.357 142.148 118.357C142.112 118.357 142.075 118.357 142.038 118.357C142 118.357 141.963 118.357 141.926 118.357C141.888 118.357 141.85 118.357 141.813 118.357C141.775 118.357 141.737 118.357 141.699 118.357C141.661 118.357 141.622 118.357 141.584 118.357C141.546 118.357 141.507 118.357 141.469 118.357C141.43 118.357 141.391 118.357 141.352 118.357C141.313 118.357 141.274 118.357 141.234 118.357C141.195 118.357 141.156 118.357 141.116 118.357C141.077 118.357 141.037 118.357 140.997 118.357C140.957 118.357 140.917 118.357 140.877 118.357C140.837 118.357 140.796 118.357 140.756 118.357C140.715 118.357 140.675 118.357 140.634 118.357C140.593 118.357 140.552 118.357 140.511 118.357C140.47 118.357 140.429 118.357 140.387 118.357C140.346 118.357 140.304 118.357 140.263 118.357C140.221 118.357 140.179 118.357 140.137 118.357C140.095 118.357 140.053 118.357 140.011 118.357C139.969 118.357 139.926 118.357 139.884 118.357C139.841 118.357 139.798 118.357 139.756 118.357C139.712 118.357 139.67 118.357 139.626 118.357C139.583 118.357 139.54 118.357 139.497 118.357C139.453 118.357 139.41 118.357 139.366 118.357C139.322 118.357 139.279 118.357 139.234 118.357C139.19 118.357 139.146 118.357 139.102 118.357C139.058 118.357 139.013 118.357 138.969 118.357C138.924 118.357 138.879 118.357 138.834 118.357C138.79 118.357 138.744 118.357 138.699 118.357C138.654 118.357 138.609 118.357 138.563 118.357C138.518 118.357 138.473 118.357 138.427 118.357C138.381 118.357 138.335 118.357 138.289 118.357C138.243 118.357 138.197 118.357 138.15 118.357C138.104 118.357 138.058 118.357 138.011 118.357C137.965 118.357 137.918 118.357 137.871 118.357C137.824 118.357 137.777 118.357 137.73 118.357C137.683 118.357 137.636 118.357 137.588 118.357C137.541 118.357 137.493 118.357 137.446 118.357C137.398 118.357 137.35 118.357 137.302 118.357C137.254 118.357 137.206 118.357 137.157 118.357C137.11 118.357 137.061 118.357 137.012 118.357C136.964 118.357 136.915 118.357 136.867 118.357C136.818 118.357 136.769 118.357 136.719 118.357C136.671 118.357 136.621 118.357 136.572 118.357C136.523 118.357 136.473 118.357 136.424 118.357C136.374 118.357 136.324 118.357 136.274 118.357C136.224 118.357 136.174 118.357 136.124 118.357C136.074 118.357 136.024 118.357 135.973 118.357C135.923 118.357 135.872 118.357 135.821 118.357C135.771 118.357 135.72 118.357 135.669 118.357C135.618 118.357 135.567 118.357 135.516 118.357C135.464 118.357 135.413 118.357 135.361 118.357C135.31 118.357 135.258 118.357 135.206 118.357C135.155 118.357 135.103 118.357 135.051 118.357C134.999 118.357 134.946 118.357 134.894 118.357C134.842 118.357 134.789 118.357 134.737 118.357C134.684 118.357 134.631 118.357 134.579 118.357C134.526 118.357 134.473 118.357 134.42 118.357C134.367 118.357 134.313 118.357 134.26 118.357C134.207 118.357 134.153 118.357 134.1 118.357C134.046 118.357 133.992 118.357 133.938 118.357C133.884 118.357 133.831 118.357 133.776 118.357C133.722 118.357 133.668 118.357 133.613 118.357C133.559 118.357 133.504 118.357 133.45 118.357C133.395 118.357 133.34 118.357 133.285 118.357C133.23 118.357 133.175 118.357 133.12 118.357C133.065 118.357 133.01 118.357 132.954 118.357C132.898 118.357 132.843 118.357 132.787 118.357C132.732 118.357 132.676 118.357 132.62 118.357C132.564 118.357 132.508 118.357 132.452 118.357C132.396 118.357 132.339 118.357 132.283 118.357C132.226 118.357 132.17 118.357 132.113 118.357C132.056 118.357 131.999 118.357 131.942 118.357C131.885 118.357 131.828 118.357 131.771 118.357C131.714 118.357 131.656 118.357 131.599 118.357C131.542 118.357 131.484 118.357 131.426 118.357C131.369 118.357 131.311 118.357 131.253 118.357C131.195 118.357 131.137 118.357 131.078 118.357C131.02 118.357 130.962 118.357 130.903 118.357C130.845 118.357 130.786 118.357 130.727 118.357C130.669 118.357 130.61 118.357 130.551 118.357C130.492 118.357 130.433 118.357 130.374 118.357C130.315 118.357 130.255 118.357 130.196 118.357C130.137 118.357 130.077 118.357 130.017 118.357C129.957 118.357 129.898 118.357 129.838 118.357C129.778 118.357 129.718 118.357 129.658 118.357C129.598 118.357 129.537 118.357 129.477 118.357C129.416 118.357 129.356 118.357 129.295 118.357C129.234 118.357 129.174 118.357 129.113 118.357C129.052 118.357 128.991 118.357 128.93 118.357C128.869 118.357 128.808 118.357 128.746 118.357C128.685 118.357 128.623 118.357 128.562 118.357C128.5 118.357 128.438 118.357 128.376 118.357C128.315 118.357 128.253 118.357 128.19 118.357C128.129 118.357 128.066 118.357 128.004 118.357C127.942 118.357 127.879 118.357 127.817 118.357C127.754 118.357 127.692 118.357 127.629 118.357C127.566 118.357 127.503 118.357 127.44 118.357C127.377 118.357 127.314 118.357 127.251 118.357C127.187 118.357 127.124 118.357 127.061 118.357C126.997 118.357 126.934 118.357 126.87 118.357C126.806 118.357 126.742 118.357 126.678 118.357C126.614 118.357 126.55 118.357 126.486 118.357C126.422 118.357 126.358 118.357 126.293 118.357C126.229 118.357 126.165 118.357 126.1 118.357C126.035 118.357 125.971 118.357 125.906 118.357C125.841 118.357 125.776 118.357 125.711 118.357C125.646 118.357 125.58 118.357 125.515 118.357C125.45 118.357 125.384 118.357 125.319 118.357C125.254 118.357 125.188 118.357 125.122 118.357C125.056 118.357 124.991 118.357 124.925 118.357C124.859 118.357 124.792 118.357 124.727 118.357C124.66 118.357 124.594 118.357 124.527 118.357C124.461 118.357 124.395 118.357 124.328 118.357C124.261 118.357 124.194 118.357 124.127 118.357C124.061 118.357 123.994 118.357 123.927 118.357C123.86 118.357 123.792 118.357 123.725 118.357C123.658 118.357 123.591 118.357 123.523 118.357C123.456 118.357 123.388 118.357 123.32 118.357C123.252 118.357 123.185 118.357 123.117 118.357C123.049 118.357 122.981 118.357 122.913 118.357C122.845 118.357 122.776 118.357 122.708 118.357C122.639 118.357 122.571 118.357 122.503 118.357C122.434 118.357 122.365 118.357 122.297 118.357C122.228 118.357 122.159 118.357 122.09 118.357C122.021 118.357 121.952 118.357 121.882 118.357C121.813 118.357 121.744 118.357 121.674 118.357C121.605 118.357 121.535 118.357 121.466 118.357C121.396 118.357 121.326 118.357 121.257 118.357C121.187 118.357 121.117 118.357 121.047 118.357C120.977 118.357 120.907 118.357 120.837 118.357C120.767 118.357 120.696 118.357 120.625 118.357C120.555 118.357 120.484 118.357 120.414 118.357C120.343 118.357 120.272 118.357 120.201 118.357C120.131 118.357 120.06 118.357 119.989 118.357C119.918 118.357 119.846 118.357 119.775 118.357C119.704 118.357 119.633 118.357 119.561 118.357C119.49 118.357 119.418 118.357 119.346 118.357C119.274 118.357 119.203 118.357 119.131 118.357C119.059 118.357 118.987 118.357 118.915 118.357C118.843 118.357 118.771 118.357 118.698 118.357C118.626 118.357 118.554 118.357 118.481 118.357C118.409 118.357 118.336 118.357 118.264 118.357C118.191 118.357 118.118 118.357 118.045 118.357C117.972 118.357 117.9 118.357 117.827 118.357C117.753 118.357 117.68 118.357 117.607 118.357C117.534 118.357 117.46 118.357 117.387 118.357C117.313 118.357 117.24 118.357 117.166 118.357C117.093 118.357 117.019 118.357 116.945 118.357C116.871 118.357 116.797 118.357 116.723 118.357C116.649 118.357 116.575 118.357 116.501 118.357C116.427 118.357 116.352 118.357 116.278 118.357C116.203 118.357 116.129 118.357 116.054 118.357C115.98 118.357 115.905 118.357 115.83 118.357C115.755 118.357 115.68 118.357 115.606 118.357C115.531 118.357 115.455 118.357 115.38 118.357C115.305 118.357 115.23 118.357 115.154 118.357C115.079 118.357 115.003 118.357 114.928 118.357C114.853 118.357 114.777 118.357 114.701 118.357C114.625 118.357 114.549 118.357 114.474 118.357C114.398 118.357 114.321 118.357 114.246 118.357C114.17 118.357 114.093 118.357 114.017 118.357C113.941 118.357 113.864 118.357 113.788 118.357C113.712 118.357 113.635 118.357 113.558 118.357C113.481 118.357 113.405 118.357 113.328 118.357C113.251 118.357 113.174 118.357 113.097 118.357C113.02 118.357 112.943 118.357 112.866 118.357C112.789 118.357 112.712 118.357 112.634 118.357C112.557 118.357 112.479 118.357 112.402 118.357C112.324 118.357 112.247 118.357 112.169 118.357C112.091 118.357 112.013 118.357 111.935 118.357C111.858 118.357 111.779 118.357 111.702 118.357C111.623 118.357 111.545 118.357 111.467 118.357C111.389 118.357 111.311 118.357 111.232 118.357C111.154 118.357 111.075 118.357 110.997 118.357C110.918 118.357 110.839 118.357 110.76 118.357C110.682 118.357 110.603 118.357 110.524 118.357C110.445 118.357 110.366 118.357 110.287 118.357C110.208 118.357 110.128 118.357 110.049 118.357C109.97 118.357 109.89 118.357 109.811 118.357C109.731 118.357 109.652 118.357 109.572 118.357C109.493 118.357 109.413 118.357 109.334 118.357C109.254 118.357 109.174 118.357 109.094 118.357C109.014 118.357 108.934 118.357 108.854 118.357C108.774 118.357 108.693 118.357 108.613 118.357C108.533 118.357 108.452 118.357 108.372 118.357C108.291 118.357 108.211 118.357 108.13 118.357C108.05 118.357 107.969 118.357 107.888 118.357C107.808 118.357 107.727 118.357 107.646 118.357C107.565 118.357 107.484 118.357 107.403 118.357C107.322 118.357 107.24 118.357 107.159 118.357C107.078 118.357 106.996 118.357 106.915 118.357C106.834 118.357 106.752 118.357 106.671 118.357C106.589 118.357 106.507 118.357 106.426 118.357C106.344 118.357 106.262 118.357 106.18 118.357C106.098 118.357 106.016 118.357 105.935 118.357C105.852 118.357 105.77 118.357 105.688 118.357C105.606 118.357 105.523 118.357 105.441 118.357C105.359 118.357 105.276 118.357 105.194 118.357C105.111 118.357 105.029 118.357 104.946 118.357C104.863 118.357 104.781 118.357 104.698 118.357C104.615 118.357 104.532 118.357 104.449 118.357C104.366 118.357 104.283 118.357 104.2 118.357C104.117 118.357 104.034 118.357 103.95 118.357C103.867 118.357 103.784 118.357 103.7 118.357C103.617 118.357 103.533 118.357 103.45 118.357C103.366 118.357 103.282 118.357 103.199 118.357C103.115 118.357 103.031 118.357 102.947 118.357C102.863 118.357 102.779 118.357 102.696 118.357C102.612 118.357 102.527 118.357 102.443 118.357C102.359 118.357 102.275 118.357 102.191 118.357C102.106 118.357 102.022 118.357 101.937 118.357C101.853 118.357 101.769 118.357 101.684 118.357C101.599 118.357 101.514 118.357 101.43 118.357C101.345 118.357 101.26 118.357 101.175 118.357C101.091 118.357 101.005 118.357 100.92 118.357C100.835 118.357 100.751 118.357 100.665 118.357C100.58 118.357 100.495 118.357 100.409 118.357C100.324 118.357 100.239 118.357 100.153 118.357C100.068 118.357 99.9826 118.357 99.8966 118.357C99.8112 118.357 99.7258 118.357 99.6398 118.357C99.5544 118.357 99.4684 118.357 99.3824 118.357C99.2965 118.357 99.2105 118.357 99.1246 118.357C99.0386 118.357 98.9527 118.357 98.8667 118.357C98.7803 118.357 98.6943 118.357 98.6078 118.357C98.5219 118.357 98.4354 118.357 98.3489 118.357C98.2625 118.357 98.176 118.357 98.0895 118.357C98.0031 118.357 97.9166 118.357 97.8296 118.357C97.7431 118.357 97.6562 118.357 97.5697 118.357C97.4827 118.357 97.3957 118.357 97.3093 118.357C97.2223 118.357 97.1353 118.357 97.0478 118.357C96.9608 118.357 96.8738 118.357 96.7868 118.357C96.6993 118.357 96.6124 118.357 96.5249 118.357C96.4374 118.357 96.3504 118.357 96.2629 118.357C96.1754 118.357 96.0879 118.357 96.0004 118.357C95.9129 118.357 95.8249 118.357 95.7374 118.357C95.6499 118.357 95.5619 118.357 95.4744 118.357C95.3864 118.357 95.2983 118.357 95.2103 118.357C95.1223 118.357 95.0343 118.357 94.9463 118.357C94.8583 118.357 94.7703 118.357 94.6823 118.357C94.5937 118.357 94.5057 118.357 94.4172 118.357C94.3292 118.357 94.2406 118.357 94.1521 118.357C94.0636 118.357 93.9756 118.357 93.8865 118.357C93.798 118.357 93.7095 118.357 93.6209 118.357C93.5324 118.357 93.4434 118.357 93.3549 118.357C93.2658 118.357 93.1773 118.357 93.0882 118.357C92.9992 118.357 92.9102 118.357 92.8211 118.357C92.7321 118.357 92.643 118.357 92.554 118.357C92.465 118.357 92.3759 118.357 92.2864 118.357C92.1973 118.357 92.1077 118.357 92.0187 118.357C91.9292 118.357 91.8396 118.357 91.75 118.357C91.6605 118.357 91.5709 118.357 91.4814 118.357C91.3918 118.357 91.3022 118.357 91.2127 118.357C91.1226 118.357 91.0331 118.357 90.943 118.357C90.8534 118.357 90.7634 118.357 90.6738 118.357C90.5837 118.357 90.4937 118.357 90.4036 118.357C90.3135 118.357 90.2234 118.357 90.1334 118.357C90.0433 118.357 89.9527 118.357 89.8626 118.357C89.7726 118.357 89.682 118.357 89.5919 118.357C89.5013 118.357 89.4107 118.357 89.3202 118.357C89.2301 118.357 89.1395 118.357 89.0489 118.357C88.9583 118.357 88.8677 118.357 88.7766 118.357C88.6861 118.357 88.5955 118.357 88.5044 118.357C88.4138 118.357 88.3232 118.357 88.2321 118.357C88.141 118.357 88.0504 118.357 87.9593 118.357C87.8682 118.357 87.7771 118.357 87.686 118.357C87.5949 118.357 87.5038 118.357 87.4127 118.357C87.3211 118.357 87.23 118.357 87.1389 118.357C87.0473 118.357 86.9562 118.357 86.8645 118.357C86.7729 118.357 86.6818 118.357 86.5902 118.357C86.4986 118.357 86.407 118.357 86.3154 118.357C86.2237 118.357 86.1321 118.357 86.0405 118.357C85.9489 118.357 85.8568 118.357 85.7652 118.357C85.6735 118.357 85.5814 118.357 85.4898 118.357C85.3977 118.357 85.3055 118.357 85.2139 118.357C85.1218 118.357 85.0297 118.357 84.9375 118.357C84.8454 118.357 84.7533 118.357 84.6611 118.357C84.569 118.357 84.4769 118.357 84.3842 118.357C84.2921 118.357 84.2 118.357 84.1073 118.357C84.0152 118.357 83.9225 118.357 83.8299 118.357C83.7378 118.357 83.6451 118.357 83.5525 118.357C83.4598 118.357 83.3672 118.357 83.2745 118.357C83.1819 118.357 83.0893 118.357 82.9966 118.357C82.904 118.357 82.8113 118.357 82.7182 118.357C82.6255 118.357 82.5329 118.357 82.4397 118.357C82.3465 118.357 82.2539 118.357 82.1608 118.357C82.0676 118.357 81.9749 118.357 81.8818 118.357C81.7886 118.357 81.6955 118.357 81.6023 118.357C81.5091 118.357 81.416 118.357 81.3228 118.357C81.2291 118.357 81.136 118.357 81.0428 118.357C80.9492 118.357 80.856 118.357 80.7623 118.357C80.6692 118.357 80.5755 118.357 80.4818 118.357C80.3886 118.357 80.295 118.357 80.2013 118.357C80.1076 118.357 80.014 118.357 79.9203 118.357C79.8266 118.357 79.7329 118.357 79.6393 118.357C79.5456 118.357 79.4519 118.357 79.3577 118.357C79.264 118.357 79.1704 118.357 79.0762 118.357C78.9825 118.357 78.8883 118.357 78.7946 118.357C78.7005 118.357 78.6063 118.357 78.5121 118.357C78.4184 118.357 78.3242 118.357 78.23 118.357C78.1358 118.357 78.0416 118.357 77.9474 118.357C77.8533 118.357 77.7591 118.357 77.6644 118.357C77.5702 118.357 77.476 118.357 77.3818 118.357C77.2871 118.357 77.1929 118.357 77.0982 118.357C77.004 118.357 76.9093 118.357 76.8151 118.357C76.7204 118.357 76.6257 118.357 76.531 118.357C76.4368 118.357 76.3421 118.357 76.2474 118.357C76.1527 118.357 76.058 118.357 75.9633 118.357C75.8686 118.357 75.7739 118.357 75.6787 118.357C75.584 118.357 75.4893 118.357 75.3946 118.357C75.2993 118.357 75.2046 118.357 75.1094 118.357C75.0147 118.357 74.9195 118.357 74.8248 118.357C74.7296 118.357 74.6349 118.357 74.5396 118.357C74.4444 118.357 74.3492 118.357 74.2545 118.357C74.1593 118.357 74.0641 118.357 73.9689 118.357C73.8736 118.357 73.7784 118.357 73.6832 118.357C73.588 118.357 73.4922 118.357 73.397 118.357C73.3018 118.357 73.2066 118.357 73.1109 118.357C73.0156 118.357 72.9204 118.357 72.8247 118.357C72.7295 118.357 72.6337 118.357 72.538 118.357C72.4428 118.357 72.3471 118.357 72.2518 118.357C72.1561 118.357 72.0604 118.357 71.9646 118.357C71.8689 118.357 71.7737 118.357 71.6779 118.357C71.5822 118.357 71.4865 118.357 71.3907 118.357C71.295 118.357 71.1993 118.357 71.103 118.357C71.0073 118.357 70.9116 118.357 70.8158 118.357C70.7196 118.357 70.6238 118.357 70.5281 118.357C70.4319 118.357 70.3361 118.357 70.2399 118.357C70.1442 118.357 70.0479 118.357 69.9522 118.357C69.8559 118.357 69.7602 118.357 69.6639 118.357C69.5677 118.357 69.4715 118.357 69.3757 118.357C69.2795 118.357 69.1832 118.357 69.087 118.357C68.9907 118.357 68.8945 118.357 68.7982 118.357C68.702 118.357 68.6057 118.357 68.5095 118.357C68.4132 118.357 68.317 118.357 68.2207 118.357C68.1245 118.357 68.0277 118.357 67.9315 118.357C67.8352 118.357 67.7385 118.357 67.6422 118.357C67.546 118.357 67.4492 118.357 67.353 118.357C67.2562 118.357 67.16 118.357 67.0632 118.357C66.9669 118.357 66.8702 118.357 66.7734 118.357C66.6772 118.357 66.5804 118.357 66.4836 118.357C66.3874 118.357 66.2906 118.357 66.1939 118.357C66.0971 118.357 66.0003 118.357 65.9036 118.357C65.8068 118.357 65.7106 118.357 65.6138 118.357C65.517 118.357 65.4203 118.357 65.323 118.357C65.2262 118.357 65.1295 118.357 65.0327 118.357C64.936 118.357 64.8392 118.357 64.7424 118.357C64.6451 118.357 64.5484 118.357 64.4516 118.357C64.3543 118.357 64.2576 118.357 64.1608 118.357C64.0635 118.357 63.9668 118.357 63.8695 118.357C63.7727 118.357 63.676 118.357 63.5787 118.357C63.4814 118.357 63.3847 118.357 63.2874 118.357C63.1906 118.357 63.0933 118.357 62.9961 118.357C62.8993 118.357 62.802 118.357 62.7047 118.357C62.608 118.357 62.5107 118.357 62.4134 118.357C62.3162 118.357 62.2189 118.357 62.1216 118.357C62.0248 118.357 61.9276 118.357 61.8303 118.357C61.733 118.357 61.6357 118.357 61.5384 118.357C61.4412 118.357 61.3439 118.357 61.2466 118.357C61.1493 118.357 61.0521 118.357 60.9548 118.357C60.857 118.357 60.7597 118.357 60.6624 118.357C60.5652 118.357 60.4679 118.357 60.3706 118.357C60.2728 118.357 60.1755 118.357 60.0783 118.357C59.981 118.357 59.8832 118.357 59.7859 118.357C59.6886 118.357 59.5908 118.357 59.4936 118.357C59.3958 118.357 59.2985 118.357 59.2012 118.357C59.1034 118.357 59.0061 118.357 58.9084 118.357C58.8111 118.357 58.7133 118.357 58.616 118.357C58.5182 118.357 58.4209 118.357 58.3231 118.357C58.2254 118.357 58.1281 118.357 58.0303 118.357C57.933 118.357 57.8352 118.357 57.7374 118.357C57.6401 118.357 57.5424 118.357 57.4446 118.357C57.3473 118.357 57.2495 118.357 57.1517 118.357C57.0539 118.357 56.9566 118.357 56.8588 118.357C56.761 118.357 56.6633 118.357 56.5655 118.357C56.4682 118.357 56.3704 118.357 56.2726 118.357C56.1748 118.357 56.077 118.357 55.9792 118.357C55.8814 118.357 55.7842 118.357 55.6864 118.357C55.5886 118.357 55.4908 118.357 55.393 118.357C55.2952 118.357 55.1974 118.357 55.0996 118.357C55.0018 118.357 54.904 118.357 54.8062 118.357C54.7084 118.357 54.6106 118.357 54.5129 118.357C54.4151 118.357 54.3173 118.357 54.2195 118.357C54.1217 118.357 54.0239 118.357 53.9261 118.357C53.8283 118.357 53.73 118.357 53.6322 118.357C53.5344 118.357 53.4366 118.357 53.3388 118.357C53.241 118.357 53.1433 118.357 53.0455 118.357C52.9477 118.357 52.8494 118.357 52.7516 118.357C52.6538 118.357 52.556 118.357 52.4582 118.357C52.3604 118.357 52.2621 118.357 52.1643 118.357C52.0665 118.357 51.9687 118.357 51.8709 118.357C51.7726 118.357 51.6748 118.357 51.577 118.357C51.4792 118.357 51.3814 118.357 51.2831 118.357C51.1853 118.357 51.0876 118.357 50.9898 118.357C50.892 118.357 50.7937 118.357 50.6959 118.357C50.5981 118.357 50.5003 118.357 50.4022 118.357C50.3042 118.357 50.2063 118.357 50.1085 118.357C50.0105 118.357 49.9126 118.357 49.8147 118.357C49.7168 118.357 49.6189 118.357 49.5209 118.357C49.423 118.357 49.3251 118.357 49.2272 118.357C49.1293 118.357 49.0314 118.357 48.9335 118.357C48.8356 118.357 48.7376 118.357 48.6397 118.357C48.5418 118.357 48.4439 118.357 48.346 118.357C48.2481 118.357 48.1502 118.357 48.0522 118.357C47.9543 118.357 47.8565 118.357 47.7586 118.357C47.6607 118.357 47.5628 118.357 47.4649 118.357C47.367 118.357 47.2691 118.357 47.1712 118.357V129.797ZM148.241 124.077C148.241 129.797 148.236 129.797 148.235 129.797C148.234 129.797 148.228 129.797 148.226 129.797C148.224 129.797 148.222 129.797 148.22 129.797C148.217 129.797 148.215 129.797 148.212 129.797C148.209 129.797 148.209 129.796 148.22 129.797C148.241 129.797 148.291 129.799 148.365 129.801C148.513 129.808 148.762 129.821 149.096 129.849C149.767 129.907 150.771 130.027 151.995 130.273C154.464 130.769 157.699 131.753 160.889 133.675C166.9 137.298 173.677 144.775 173.677 161.566H185C185 140.869 176.229 129.601 166.69 123.851C162.105 121.088 157.566 119.728 154.204 119.053C152.513 118.713 151.087 118.54 150.058 118.451C149.542 118.407 149.123 118.383 148.815 118.371C148.661 118.365 148.535 118.361 148.439 118.36C148.391 118.359 148.35 118.358 148.317 118.358C148.3 118.358 148.286 118.358 148.273 118.358C148.267 118.357 148.26 118.357 148.255 118.357C148.253 118.357 148.249 118.357 148.248 118.357C148.244 118.357 148.241 118.357 148.241 124.077ZM173.677 161.566C173.677 178.358 166.9 185.834 160.889 189.457C157.699 191.379 154.464 192.364 151.995 192.86C150.771 193.106 149.767 193.225 149.096 193.283C148.762 193.312 148.513 193.325 148.365 193.331C148.291 193.334 148.242 193.335 148.221 193.336C148.21 193.336 148.206 193.336 148.21 193.336C148.211 193.336 148.216 193.336 148.221 193.336C148.223 193.336 148.225 193.336 148.229 193.336C148.231 193.336 148.234 193.336 148.234 193.336C148.237 193.336 148.241 193.336 148.241 199.055C148.241 204.775 148.244 204.775 148.248 204.775C148.249 204.775 148.253 204.775 148.255 204.775C148.261 204.775 148.267 204.775 148.273 204.775C148.286 204.775 148.3 204.775 148.317 204.774C148.35 204.774 148.391 204.774 148.439 204.773C148.535 204.771 148.661 204.768 148.815 204.761C149.123 204.749 149.542 204.726 150.058 204.681C151.087 204.592 152.513 204.419 154.204 204.079C157.566 203.404 162.105 202.045 166.69 199.281C176.229 193.532 185 182.264 185 161.566H173.677ZM148.241 193.336H6.35497V204.775H148.241V193.336ZM28.7438 115.532C17.0216 111.193 10.6218 97.1678 11.38 81.672C12.1387 66.1654 19.8494 53.1514 31.9117 50.3357L29.3623 39.1899C10.203 43.6627 0.949029 63.15 0.0704904 81.1068C-0.808546 99.0745 6.4821 119.475 24.8482 126.273L28.7438 115.532Z" fill="#CDEFDC"/>
</svg>
