<svg width="36" height="36" viewBox="0 0 36 36" fill="none" xmlns="http://www.w3.org/2000/svg">
<g id="telegram" clip-path="url(#clip0_297_151)">
<circle id="&#209;&#132;&#208;&#190;&#208;&#189;" cx="18" cy="18" r="18" fill="#8D6EC8"/>
<path id="Vector" d="M26.472 10.3369C26.0536 9.99339 25.4785 9.90501 24.9746 10.1067L7.9107 16.9261C7.16008 17.232 6.80206 18.0823 7.11101 18.8252C7.27081 19.2095 7.58889 19.5078 7.9851 19.6449L11.6663 20.9117L13.6613 27.4412C13.6653 27.4544 13.6776 27.4626 13.6828 27.4753C13.7034 27.5274 13.7336 27.5753 13.7717 27.6167C13.7859 27.6333 13.8013 27.6489 13.8178 27.6633C13.8675 27.7041 13.9252 27.7343 13.9873 27.7519C13.9968 27.7547 14.0031 27.763 14.0128 27.7652L14.0184 27.765L14.0212 27.7661C14.053 27.7732 14.0854 27.7766 14.1179 27.7763C14.1604 27.7748 14.2025 27.7675 14.243 27.7547C14.2508 27.7526 14.2587 27.7531 14.2664 27.7506C14.3355 27.7265 14.398 27.6869 14.4488 27.6347C14.4547 27.6289 14.4638 27.6278 14.4694 27.6216L17.3396 24.4867L21.5268 27.6962C21.7812 27.8931 22.0949 28.0001 22.4178 28C23.1163 27.9999 23.7192 27.5156 23.8631 26.839L26.9705 11.7381C27.0782 11.2158 26.8865 10.6772 26.472 10.3369ZM14.703 22.15L14.0294 25.3901L12.6248 20.7915L19.5914 17.2004L14.8322 21.9116C14.7664 21.9768 14.7215 22.0597 14.703 22.15ZM22.9303 26.6494C22.8938 26.8229 22.7687 26.9652 22.6001 27.025C22.4354 27.0877 22.2494 27.0598 22.1109 26.9514L17.5741 23.474C17.3776 23.3234 17.0973 23.3479 16.9305 23.5301L14.9346 25.71L15.607 22.4787L22.4532 15.7007C22.6392 15.5169 22.6395 15.2186 22.4538 15.0344C22.3069 14.8887 22.0814 14.8543 21.897 14.9494L12.0271 20.0373L8.29667 18.7537C8.09334 18.6874 7.95505 18.5006 7.95255 18.2887C7.94272 18.0754 8.07032 17.8792 8.27063 17.7998L25.3317 10.9813C25.5099 10.9065 25.7156 10.9378 25.8628 11.0624C26.0093 11.1794 26.0766 11.3682 26.0367 11.5503L22.9303 26.6494Z" fill="#E8E2F4"/>
</g>
<defs>
<clipPath id="clip0_297_151">
<rect width="36" height="36" fill="white"/>
</clipPath>
</defs>
</svg>
