<svg width="20" height="20" viewBox="0 0 20 20" fill="none" xmlns="http://www.w3.org/2000/svg">
<path d="M18.5248 2.29943C18.1482 1.99413 17.6306 1.91556 17.1771 2.09484L1.81963 8.15656C1.14407 8.42841 0.821853 9.18424 1.09991 9.84467C1.24373 10.1862 1.53 10.4513 1.88659 10.5732L5.19966 11.6993L6.99515 17.5032C6.99876 17.5151 7.00985 17.5223 7.01451 17.5336C7.03308 17.5799 7.06023 17.6225 7.0945 17.6592C7.10727 17.674 7.12118 17.6879 7.13604 17.7007C7.18077 17.737 7.23272 17.7638 7.28859 17.7795C7.29712 17.782 7.30282 17.7894 7.31151 17.7913L7.31653 17.7911L7.31904 17.7921C7.34766 17.7984 7.37685 17.8014 7.4061 17.8011C7.44434 17.7998 7.48227 17.7934 7.51868 17.782C7.52574 17.7801 7.53286 17.7806 7.53976 17.7783C7.60197 17.7569 7.65815 17.7216 7.70393 17.6753C7.70927 17.6701 7.71738 17.6692 7.7225 17.6636L10.3057 14.8771L14.0741 17.7299C14.3031 17.905 14.5854 18.0001 14.876 18C15.5046 17.9999 16.0473 17.5694 16.1768 16.968L18.9734 3.545C19.0703 3.08067 18.8979 2.60192 18.5248 2.29943ZM7.93266 12.8L7.32647 15.6801L6.0623 11.5924L12.3322 8.40038L8.04901 12.5881C7.98979 12.646 7.94935 12.7197 7.93266 12.8ZM15.3373 16.7994C15.3044 16.9537 15.1918 17.0802 15.0401 17.1333C14.8919 17.1891 14.7244 17.1642 14.5998 17.0679L10.5167 13.9769C10.3399 13.8431 10.0876 13.8648 9.93741 14.0268L8.14114 15.9644L8.74628 13.0922L14.9079 7.0673C15.0753 6.90388 15.0756 6.63872 14.9084 6.47505C14.7762 6.34549 14.5733 6.3149 14.4073 6.3995L5.52439 10.922L2.167 9.78104C1.984 9.72216 1.85954 9.55609 1.85729 9.36776C1.84845 9.1781 1.96329 9.00373 2.14357 8.9332L17.4986 2.8723C17.659 2.80575 17.844 2.83363 17.9765 2.94431C18.1083 3.04835 18.1689 3.21617 18.133 3.37805L15.3373 16.7994Z" fill="#03AD52"/>
</svg>
